<?xml version="1.0" encoding="UTF-8" standalone="no"?>
<!-- Created with Inkscape (http://www.inkscape.org/) -->

<svg
   xmlns:dc="http://purl.org/dc/elements/1.1/"
   xmlns:cc="http://creativecommons.org/ns#"
   xmlns:rdf="http://www.w3.org/1999/02/22-rdf-syntax-ns#"
   xmlns:svg="http://www.w3.org/2000/svg"
   xmlns="http://www.w3.org/2000/svg"
   xmlns:sodipodi="http://sodipodi.sourceforge.net/DTD/sodipodi-0.dtd"
   xmlns:inkscape="http://www.inkscape.org/namespaces/inkscape"
   id="svg2"
   version="1.1"
   inkscape:version="0.48.4 r9939"
   width="7750"
   height="2227"
   sodipodi:docname="magnetar-marqee.png">
  <metadata
     id="metadata8">
    <rdf:RDF>
      <cc:Work
         rdf:about="">
        <dc:format>image/svg+xml</dc:format>
        <dc:type
           rdf:resource="http://purl.org/dc/dcmitype/StillImage" />
        <dc:title></dc:title>
      </cc:Work>
    </rdf:RDF>
  </metadata>
  <defs
     id="defs6" />
  <sodipodi:namedview
     pagecolor="#ffffff"
     bordercolor="#666666"
     borderopacity="1"
     objecttolerance="10"
     gridtolerance="10"
     guidetolerance="10"
     inkscape:pageopacity="0"
     inkscape:pageshadow="2"
     inkscape:window-width="640"
     inkscape:window-height="480"
     id="namedview4"
     showgrid="false"
     inkscape:zoom="0.030815027"
     inkscape:cx="4253.3617"
     inkscape:cy="771.05832"
     inkscape:window-x="88"
     inkscape:window-y="46"
     inkscape:window-maximized="0"
     inkscape:current-layer="svg2" />
  <path
     style="fill:#000000"
     d="M 0.6050905,1595.8109 0.6050905,965.02647 32.9468,951.27764 C 50.73474,943.71579 69.07224,936.01699 73.6968,934.1692 78.321359,932.32142 102.58009,922.4117 127.60509,912.1476 358.65618,817.38121 593.13806,735.24631 838.10506,663.27201 1119.4792,580.60091 1354.2104,523.24501 1667.6051,460.58601 1820.594,429.99801 1959.208,406.17201 2162.4554,375.52741 2266.9201,359.77671 2300.1804,355.43221 2498.6051,331.61881 2582.7301,321.52281 2617.1792,317.68751 2665.1051,313.08171 2679.9551,311.65461 2706.1025,308.95691 2723.2104,307.08691 2766.3962,302.36641 2792.6957,300.43941 2809.1051,300.79341 L 2823.1051,301.09541 2815.8192,303.39851 C 2807.5294,306.01881 2796.5501,308.07091 2785.6051,309.04571 2759.2236,311.39531 2740.5571,313.82651 2677.6051,323.11191 2477.0025,352.70061 2339.7097,377.22591 2190.6051,410.10681 1981.4453,456.23131 1793.5764,510.82101 1625.6051,574.28081 1568.0926,596.00901 1473.9106,634.71031 1421.6051,658.10841 1243.8814,737.61041 1098.9735,822.85341 975.60506,920.47085 960.50486,932.41916 933.10216,955.33514 923.60506,963.95666 855.40186,1025.8724 813.39476,1074.4859 771.83526,1139.5954 759.22406,1159.3529 750.95526,1170.2041 742.65576,1177.888 L 736.49106,1183.5954 688.54806,1183.5954 640.60506,1183.5954 640.60506,1634.0954 640.60506,2084.5954 784.10286,2084.5954 927.60056,2084.5954 927.85286,1866.4604 928.10506,1648.3254 1026.3195,1841.2104 C 1080.3374,1947.2971 1129.8733,2044.5713 1136.3991,2057.3752 L 1148.2643,2080.6549 1260.6847,1864.7003 1373.1051,1648.7457 1373.3574,1866.6705 1373.6096,2084.5954 1517.1074,2084.5954 1660.6051,2084.5954 1660.6051,1634.0954 1660.6051,1183.5954 1483.7633,1183.5954 1306.9214,1183.5954 1228.1069,1360.3454 C 1184.7588,1457.5579 1148.9956,1537.44 1148.6329,1537.8612 1148.2703,1538.2823 1113.787,1458.8573 1072.0035,1361.3612 L 996.03349,1184.0954 895.81926,1183.8406 C 836.74846,1183.6904 795.60506,1183.2136 795.60506,1182.6792 795.60506,1180.9191 802.78966,1164.9646 808.25176,1154.5954 838.79216,1096.6171 924.98586,1003.2783 1016.1051,929.51204 1074.268,882.42571 1146.7653,832.94551 1222.3117,788.77371 1317.3608,733.19861 1434.9623,676.46891 1561.6051,625.10211 1883.9546,494.35601 2291.2572,391.07991 2726.6051,329.70351 2777.0201,322.59591 2845.2826,314.39571 2843.8868,315.61471 2842.2335,317.05861 2829.78,321.42571 2822.8883,322.97841 2818.919,323.87261 2801.144,327.31831 2783.3883,330.63561 2584.5636,367.78111 2432.664,401.42631 2293.1051,439.23131 2254.8567,449.59241 2194.3379,466.92101 2169.1051,474.73681 2007.0744,524.92511 1899.6334,582.96251 1817.6319,664.59541 1762.5434,719.43641 1733.4326,769.87671 1715.768,841.09541 1707.9699,872.53511 1707.1362,877.27751 1707.1539,890.09541 1707.1694,901.38091 1707.3971,902.75041 1710.9787,913.09542 1713.0733,919.14542 1718.3077,938.72042 1722.6107,956.59542 1734.2882,1005.1046 1735.115,1007.2525 1745.2845,1015.5041 1752.8256,1021.623 1753.4818,1023.2739 1753.503,1036.1797 1753.5292,1052.1788 1757.0864,1064.4723 1765.8898,1078.988 L 1769.4635,1084.8805 1767.5035,1089.8532 C 1764.7045,1096.9543 1765.401,1098.1065 1773.6146,1099.9614 1781.2689,1101.6899 1787.2473,1104.3925 1789.7135,1107.239 1793.4849,1111.592 1794.445,1120.6198 1792.7537,1135.8271 1792.342,1139.5295 1792.3887,1143.2442 1792.8575,1144.082 1793.3264,1144.9198 1797.0481,1147.8578 1801.128,1150.6108 1805.2079,1153.3639 1809.0093,1156.4821 1809.5756,1157.5402 1811.0265,1160.2513 1810.854,1165.0639 1809.1606,1169.1168 1807.7881,1172.4017 1807.8438,1172.7257 1810.2802,1175.6211 1811.6905,1177.2971 1814.928,1179.6645 1817.4747,1180.8819 1821.4521,1182.7832 1822.6692,1184.149 1826.1051,1190.5664 1830.9721,1199.6567 1833.3589,1201.287 1839.4075,1199.6526 1842.4759,1198.8235 1845.7745,1196.5367 1850.9075,1191.6799 1856.7653,1186.1374 1864.6051,1180.5054 1864.6051,1181.8398 1864.6051,1182.0025 1863.6766,1185.5016 1862.5418,1189.6155 1859.8726,1199.292 1856.8466,1204.361 1850.9098,1209.1009 1848.2672,1211.2108 1845.7494,1213.2384 1845.3146,1213.6068 1844.8798,1213.9751 1846.0667,1217.3857 1847.9522,1221.1859 1852.5889,1230.5312 1853.7471,1236.096 1853.5265,1247.9692 L 1853.3397,1258.0272 1860.2224,1259.8106 C 1888.6516,1267.1773 1903.2932,1268.2417 1918.7445,1264.0652 1928.6105,1261.3985 1958.5395,1255.3669 1959.6273,1255.8261 1959.9781,1255.9742 1913.6175,1441.2704 1856.6037,1667.5954 1799.5899,1893.9204 1752.6328,2080.3329 1752.2546,2081.8454 L 1751.567,2084.5954 1899.0187,2084.5954 C 2038.5806,2084.5954 2046.4986,2084.5018 2046.9995,2082.8454 2047.2905,2081.8829 2051.6199,2061.0704 2056.6204,2036.5954 2061.6208,2012.1204 2065.9618,1991.0829 2066.267,1989.8454 L 2066.8219,1987.5954 2182.5791,1987.5954 2298.3363,1987.5954 2302.5184,2009.3454 C 2304.8186,2021.3079 2309.0211,2043.1329 2311.8574,2057.8454 L 2317.0143,2084.5954 2464.4263,2084.5954 2611.8383,2084.5954 2611.3188,2081.8454 C 2611.0331,2080.3329 2559.7931,1877.6094 2497.4522,1631.3487 L 2384.1051,1183.6021 2181.1677,1183.8487 1978.2302,1184.0954 1974.52,1198.9098 C 1972.4793,1207.0577 1970.6512,1213.8759 1970.4574,1214.0614 1970.2636,1214.2469 1964.5401,1212.1751 1957.7384,1209.4574 1946.88,1205.1188 1944.1359,1203.5066 1935.2384,1196.2379 1929.6651,1191.6848 1916.871,1181.3438 1906.8071,1173.2577 1893.0934,1162.2393 1886.6007,1156.2434 1880.8923,1149.3257 1871.5499,1138.0042 1867.8286,1133.92 1845.9221,1110.9453 L 1828.616,1092.7952 1829.2513,1088.1597 C 1829.7978,1084.1726 1829.5587,1083.1749 1827.5422,1081.0285 1826.2527,1079.6559 1822.8521,1077.8509 1819.9852,1077.0175 1817.1183,1076.1841 1814.1724,1074.7806 1813.4389,1073.8986 1812.6225,1072.9171 1811.9007,1068.461 1811.5783,1062.4124 L 1811.0514,1052.5298 1801.9368,1044.0817 C 1790.4723,1033.4555 1784.7587,1024.6775 1773.957,1001.0954 1769.4224,991.19542 1762.7357,977.47042 1759.0977,970.59542 1748.0655,949.74694 1743.972,939.37327 1739.5646,921.09542 1728.9038,876.88401 1735.3336,828.05351 1757.5985,784.13881 1766.6966,766.19391 1772.7558,756.47481 1785.6801,739.09541 1798.9271,721.28191 1808.1115,710.83441 1826.9976,692.09541 1878.0423,641.44831 1949.1389,594.98891 2043.1051,550.87611 2208.2014,473.37101 2451.313,408.75261 2751.1051,362.69171 2808.8005,353.82721 2897.4977,341.43281 2930.1051,337.67851 2943.4316,336.14411 2988.8253,332.48221 2989.2503,332.90731 2990.2183,333.87531 2964.951,340.54401 2924.1051,350.10091 2844.883,368.63671 2794.9594,382.39011 2743.1051,399.96411 2642.1556,434.17721 2554.3875,478.71841 2505.6051,520.49241 2462.8726,557.08561 2436.8982,592.10701 2423.109,631.72251 2417.1208,648.92631 2414.5598,663.54531 2413.9343,684.09541 2413.285,705.43021 2414.8313,719.58861 2420.0235,739.84691 2428.5493,773.11231 2440.907,799.13121 2467.3497,839.49111 2484.755,866.05711 2486.8983,868.76001 2507.2174,889.76801 2525.77,908.94968 2532.6361,917.39015 2538.0807,927.70853 2540,931.34574 2542.1406,934.78205 2542.8377,935.34476 2543.5348,935.90748 2547.7051,937.78866 2552.1051,939.52517 2566.5169,945.21292 2575.9608,951.78789 2595.4809,969.72392 2602.2876,975.97825 2612.5242,984.92042 2618.2289,989.59542 2625.3847,995.4595 2629.7869,999.956 2632.4249,1004.0954 2640.0538,1016.0665 2648.5252,1022.8194 2675.0868,1038.1032 2695.9458,1050.1057 2700.4332,1053.3438 2713.1051,1065.5369 2723.9619,1075.9836 2734.1013,1082.1642 2745.2092,1085.1065 2760.9405,1089.2736 2786.199,1088.9097 2809.1051,1084.1861 2834.362,1078.9776 2862.0741,1071.6651 2863.3997,1069.8592 2866.5609,1065.5522 2861.4982,1059.3816 2853.3737,1057.6392 2844.053,1055.6403 2818.9883,1048.4792 2810.6051,1045.4201 2805.9301,1043.7142 2796.7115,1039.6241 2790.1194,1036.331 2783.5272,1033.038 2771.6594,1028.1368 2763.7464,1025.4396 2746.8595,1019.6835 2741.9347,1017.0293 2734.917,1009.9019 2730.0254,1004.9339 2729.3194,1004.5692 2722.5649,1003.5212 2705.2993,1000.8424 2683.0502,991.4658 2661.9532,977.97728 2639.7781,963.79947 2610.0962,943.09972 2597.6051,933.10189 2571.1133,911.89787 2532.493,871.06211 2502.0783,832.09541 2462.59,781.50361 2443.9946,732.03891 2445.8866,682.62211 2447.2809,646.20231 2459.721,612.51841 2483.6247,580.43891 2511.9222,542.46291 2544.648,516.00901 2608.7461,479.29701 2619.1193,473.35581 2656.2593,455.31701 2673.6051,447.79511 2799.838,393.05561 2984.4729,349.18681 3215.1051,319.13601 3335.0235,303.51091 3392.8092,298.14991 3570.6051,286.15511 3615.4301,283.13101 3655.1157,280.39341 3658.7953,280.07141 3666.2069,279.42301 3672.0881,280.61431 3675.7692,283.50981 3678.2709,285.47771 3682.3697,292.16931 3681.5612,292.96591 3681.3104,293.21311 3654.7801,298.20151 3622.6051,304.05121 3459.0026,333.79581 3358.9176,356.84531 3256.3332,388.40371 L 3230.5612,396.33201 3228.0832,393.38701 C 3226.7202,391.76721 3225.6051,390.09221 3225.6051,389.66471 3225.6051,389.23721 3224.5016,387.69671 3223.1528,386.24141 3220.0597,382.90391 3214.9746,382.67081 3211.7051,385.71681 3209.3773,387.88561 3209.355,388.37931 3211.1681,397.61491 3211.4402,399.00061 3211.0873,400.88531 3210.3839,401.80331 3209.6806,402.72121 3198.7551,407.50241 3186.1051,412.42811 3115.516,439.91471 3077.2404,460.22321 3043.6051,488.03671 3021.511,506.30661 3008.9635,522.91081 3001.9982,543.09541 2999.53,550.24791 2999.2325,552.52561 2999.1903,564.59541 2999.1333,580.90501 3000.4469,586.45691 3008.0626,602.09541 3014.4325,615.17571 3022.6103,626.42441 3035.5527,639.90861 3064.1045,669.65551 3095.2752,690.00151 3163.1051,723.16561 3201.7782,742.07401 3231.9068,754.50491 3264.6051,765.04401 3289.58,773.09371 3315.408,782.08531 3334.6051,789.41341 3362.9307,800.22611 3390.5235,807.64281 3484.1051,829.59791 3507.7551,835.14641 3538.3551,842.54831 3552.1051,846.04651 3585.9139,854.64801 3598.1909,857.31811 3614.4809,859.61251 3645.5024,863.98171 3660.8772,868.49641 3697.1051,883.87421 3708.1051,888.54341 3720.4801,893.57861 3724.6051,895.06351 3759.0815,907.4745 3787.8565,902.72109 3828.9039,877.83421 3834.8432,874.23321 3840.6245,870.11881 3841.7514,868.69121 3845.7594,863.61311 3841.9444,851.78831 3836.4727,852.32961 3835.1705,852.45841 3826.9051,852.58541 3818.1051,852.61181 3800.1173,852.66571 3788.1595,851.29321 3762.073,846.18051 3727.2641,839.35841 3715.9266,837.49581 3697.6051,835.58931 3676.0613,833.34761 3676.1593,833.36541 3646.1051,826.23441 3623.5636,820.88611 3609.8779,818.60381 3600.3129,818.59821 3590.6425,818.59251 3577.4867,815.01031 3545.267,803.60971 3531.9843,798.90981 3517.045,795.59541 3509.1433,795.59541 3505.5305,795.59541 3503.1253,795.01131 3501.49,793.73681 3493.7012,787.66681 3485.4825,786.11231 3471.9327,788.14631 3454.1953,790.80891 3449.5039,790.08021 3433.8868,782.23691 3422.0298,776.28201 3405.7575,770.90201 3380.5338,764.59721 3353.042,757.72551 3348.5892,756.36941 3330.7644,749.44031 3313.3853,742.68441 3304.9296,740.44581 3274.9379,734.66051 3192.4057,718.74041 3122.9953,684.87431 3075.0251,637.12081 3060.8971,623.05661 3054.4495,614.78331 3048.2755,602.79691 3040.9753,588.62391 3039.1051,581.24111 3039.1051,566.59541 3039.1051,551.92941 3041.0432,544.24641 3048.1216,530.85221 3065.9095,497.19231 3110.3451,465.14381 3176.7939,438.04901 3248.663,408.74411 3324.8741,386.95521 3430.2453,365.58671 3646.4808,321.73581 3899.7518,292.97551 4297.1051,267.15001 4449.3859,257.25271 4599.8591,250.42271 4806.6051,244.02371 4884.3393,241.61781 4898.9118,241.44811 4988.6051,241.90441 5094.081,242.44111 5184.3307,244.83681 5372.6051,252.09761 5510.8264,257.42811 5588.472,261.37461 5708.1051,269.15001 6105.4584,294.97551 6358.7294,323.73581 6574.9649,367.58671 6680.3361,388.95521 6756.5472,410.74411 6828.4163,440.04901 6876.9296,459.83051 6910.8387,480.39541 6936.265,505.45621 6949.7148,518.71271 6959.0285,533.31771 6963.775,548.59541 6967.1255,559.37981 6967.119,577.85161 6963.7609,588.59541 6960.726,598.30491 6953.7853,611.71991 6947.3589,620.29691 6940.337,629.66871 6920.3284,649.37031 6907.1051,659.93291 6861.4108,696.43331 6799.4567,723.31511 6730.2723,736.66051 6700.2806,742.44581 6691.8249,744.68441 6674.4458,751.44031 6656.621,758.36941 6652.1682,759.72551 6624.6764,766.59721 6599.4527,772.90201 6583.1804,778.28201 6571.3234,784.23691 6555.7063,792.08021 6551.0149,792.80891 6533.2775,790.14631 6519.7277,788.11231 6511.509,789.66681 6503.7202,795.73681 6502.0849,797.01131 6499.6797,797.59541 6496.0669,797.59541 6488.1652,797.59541 6473.2259,800.90981 6459.9432,805.60971 6427.7235,817.01031 6414.5677,820.59251 6404.8973,820.59821 6395.3323,820.60381 6381.6466,822.88611 6359.1051,828.23441 6329.0509,835.36541 6329.1489,835.34761 6307.6051,837.58931 6289.2836,839.49581 6277.9461,841.35841 6243.1372,848.18051 6217.0507,853.29321 6205.0929,854.66571 6187.1051,854.61181 6178.3051,854.58541 6170.0397,854.45841 6168.7375,854.32961 6163.2658,853.78831 6159.4508,865.61311 6163.4588,870.69121 6165.7203,873.55641 6182.92,884.29151 6194.5713,890.10981 6225.2031,905.40665 6251.52,907.53371 6280.6051,897.06351 6284.7301,895.57861 6297.1051,890.54341 6308.1051,885.87421 6344.333,870.49641 6359.7078,865.98171 6390.7293,861.61251 6407.0193,859.31811 6419.2963,856.64801 6453.1051,848.04651 6466.8551,844.54831 6497.4551,837.14641 6521.1051,831.59791 6614.6867,809.64281 6642.2795,802.22611 6670.6051,791.41341 6689.8022,784.08531 6715.6302,775.09371 6740.6051,767.04401 6773.3034,756.50491 6803.432,744.07401 6842.1051,725.16561 6909.935,692.00151 6941.1057,671.65551 6969.6575,641.90861 6982.5999,628.42441 6990.7777,617.17571 6997.1476,604.09541 7004.7633,588.45691 7006.0769,582.90501 7006.0199,566.59541 7005.9777,554.52561 7005.6802,552.24791 7003.212,545.09541 6996.2467,524.91081 6983.6992,508.30661 6961.6051,490.03671 6927.9698,462.22321 6889.6942,441.91471 6819.1051,414.42811 6806.4551,409.50241 6795.5296,404.72121 6794.8263,403.80331 6794.1229,402.88531 6793.77,401.00061 6794.0421,399.61491 6795.8552,390.37931 6795.8329,389.88561 6793.5051,387.71681 6790.2356,384.67081 6785.1505,384.90391 6782.0574,388.24141 6780.7086,389.69671 6779.6051,391.23721 6779.6051,391.66471 6779.6051,392.09221 6778.49,393.76721 6777.127,395.38701 L 6774.649,398.33201 6748.877,390.40371 C 6646.2926,358.84531 6546.2076,335.79581 6382.6051,306.05121 6350.4301,300.20151 6323.8998,295.21311 6323.649,294.96591 6322.8405,294.16931 6326.9393,287.47771 6329.441,285.50981 6333.1221,282.61431 6339.0033,281.42301 6346.4149,282.07141 6350.0945,282.39341 6389.7801,285.13101 6434.6051,288.15511 6612.401,300.14991 6670.1867,305.51091 6790.1051,321.13601 7020.7373,351.18681 7205.3722,395.05561 7331.6051,449.79511 7348.9509,457.31701 7386.0909,475.35581 7396.4641,481.29701 7460.5622,518.00901 7493.288,544.46291 7521.5855,582.43891 7545.4892,614.51841 7557.9293,648.20231 7559.3236,684.62211 7561.2156,734.03891 7542.6202,783.50361 7503.1319,834.09541 7472.7172,873.06211 7434.0969,913.89787 7407.6051,935.10189 7395.114,945.09972 7365.4321,965.79947 7343.257,979.97728 7322.16,993.4658 7299.9109,1002.8424 7282.6453,1005.5212 7275.8908,1006.5692 7275.1848,1006.9339 7270.2932,1011.9019 7263.2755,1019.0293 7258.3507,1021.6835 7241.4638,1027.4396 7233.5508,1030.1368 7221.683,1035.038 7215.0908,1038.331 7208.4987,1041.6241 7199.2801,1045.7142 7194.6051,1047.4201 7186.2219,1050.4792 7161.1572,1057.6403 7151.8365,1059.6392 7143.712,1061.3816 7138.6493,1067.5522 7141.8105,1071.8592 7143.1361,1073.6651 7170.8482,1080.9776 7196.1051,1086.1861 7219.0112,1090.9097 7244.2697,1091.2736 7260.001,1087.1065 7271.1089,1084.1642 7281.2483,1077.9836 7292.1051,1067.5369 7304.777,1055.3438 7309.2644,1052.1057 7330.1234,1040.1032 7356.685,1024.8194 7365.1564,1018.0665 7372.7853,1006.0954 7375.4233,1001.956 7379.8255,997.4595 7386.9813,991.59542 7392.686,986.92042 7402.9226,977.97825 7409.7293,971.72392 7429.2494,953.78789 7438.6933,947.21292 7453.1051,941.52517 7457.5051,939.78866 7461.6754,937.90748 7462.3725,937.34476 7463.0696,936.78205 7465.2102,933.34574 7467.1295,929.70853 7472.5741,919.39015 7479.4402,910.94968 7497.9928,891.76801 7507.4414,881.99911 7517.2703,871.27941 7519.8349,867.94651 7526.9588,858.68851 7550.4626,822.45761 7557.3699,810.08671 7574.9992,778.51281 7586.22,746.47631 7590.2047,716.34041 7592.5246,698.79511 7591.6481,672.48061 7588.1957,656.02591 7578.1116,607.96301 7550.0876,565.72221 7499.6051,522.49241 7450.8227,480.71841 7363.0546,436.17721 7262.1051,401.96411 7210.2508,384.39011 7160.3272,370.63671 7081.1051,352.10091 7040.2592,342.54401 7014.9919,335.87531 7015.9599,334.90731 7016.3849,334.48221 7061.7786,338.14411 7075.1051,339.67851 7107.7125,343.43281 7196.4097,355.82721 7254.1051,364.69171 7428.6681,391.51201 7586.089,425.09701 7720.2689,464.14541 7732.4589,467.69291 7742.9214,470.59541 7743.5189,470.59541 7744.2302,470.59541 7744.6051,467.04221 7744.6051,460.30111 L 7744.6051,450.00691 7706.8551,439.84841 C 7566.2391,402.00881 7419.3144,369.53221 7221.8219,332.63561 7204.0662,329.31831 7186.2912,325.87261 7182.3219,324.97841 7175.4302,323.42571 7162.9767,319.05861 7161.3234,317.61471 7159.9276,316.39571 7228.1901,324.59591 7278.6051,331.70351 7373.5365,345.08721 7483.452,363.29471 7577.1051,381.15011 7626.2653,390.52271 7720.3048,409.84111 7742.3551,415.09721 7744.5655,415.62411 7744.6051,415.46991 7744.6051,406.34241 L 7744.6051,397.05131 7736.3551,395.31501 C 7685.5449,384.62101 7590.9774,367.16571 7513.1051,354.10731 7443.9367,342.50851 7416.9428,338.28911 7327.6051,325.11191 7264.6531,315.82651 7245.9866,313.39531 7219.6051,311.04571 7208.6601,310.07091 7197.6808,308.01881 7189.391,305.39851 L 7182.1051,303.09541 7196.1051,302.79341 C 7212.5145,302.43941 7238.814,304.36641 7281.9998,309.08691 7299.1077,310.95691 7325.2551,313.65461 7340.1051,315.08171 7397.587,320.60581 7450.8631,326.73591 7622.6051,347.58701 7659.7389,352.09541 7731.1765,361.20641 7739.3551,362.47701 L 7744.6051,363.29261 7744.6051,355.14631 7744.6051,347.00011 7730.3551,345.26171 C 7699.5845,341.50791 7423.7581,312.19751 7348.1051,304.64221 7266.5141,296.49401 7177.2142,288.01471 7110.6051,282.09081 7031.4207,275.04871 7002.0757,272.28941 6967.1051,268.59801 6951.7051,266.97241 6930.1051,265.19821 6919.1051,264.65541 6899.7557,263.70051 6888.3223,261.84161 6883.0727,258.79731 6880.5015,257.30621 6917.6068,257.16611 6937.9177,258.59011 6974.9203,261.18451 7049.7939,265.91551 7104.1051,269.09081 7176.8341,273.34301 7206.9777,275.41421 7272.1051,280.63461 7361.5509,287.80421 7736.121,319.91321 7742.3551,320.94551 7744.5615,321.31081 7744.6051,321.12701 7744.6051,311.45671 7744.6051,302.41651 7744.446,301.59541 7742.6949,301.59541 7741.6442,301.59541 7710.4348,299.12411 7673.3406,296.10351 7636.2464,293.08301 7600.0935,290.20001 7593.0009,289.69671 7585.9082,289.19351 7578.9319,288.24691 7577.4981,287.59321 7575.0533,286.47861 7574.8517,285.84991 7574.2585,277.49281 7573.188,262.41191 7570.3756,258.59541 7560.3329,258.59541 7549.5615,258.59541 7546.3383,262.30051 7544.5243,276.76761 7543.9532,281.32171 7543.4003,285.09331 7543.2956,285.14891 7542.7909,285.41681 7462.5181,279.97821 7387.6051,274.60061 7151.2581,257.63451 7128.9829,256.29231 6940.1051,247.63641 6880.7051,244.91421 6827.9301,242.43141 6822.8274,242.11901 6804.3047,240.98531 6791.8062,237.38511 6781.2115,230.13161 L 6775.0019,225.88041 6768.6397,229.72731 C 6757.9969,236.16261 6752.2409,237.99321 6742.4783,238.04741 6734.2271,238.09331 6733.498,237.91031 6725.7334,233.84541 6721.1356,231.43831 6716.2365,229.59541 6714.4354,229.59541 6712.6864,229.59541 6707.8466,230.82251 6703.6803,232.32231 6696.5344,234.89461 6695.1699,235.04411 6679.6051,234.96071 6670.5301,234.91211 6627.1051,233.23991 6583.1051,231.24471 6489.6408,227.00661 6437.3162,225.09861 6371.2946,223.52101 6327.9876,222.48621 6323.3721,222.52781 6322.2946,223.96271 6321.211,225.40591 6315.6767,225.32681 6260.1051,223.07331 6226.5551,221.71281 6176.6051,219.69851 6149.1051,218.59701 6121.6051,217.49561 6082.6801,215.89021 6062.6051,215.02951 6042.5301,214.16881 6003.8301,213.30691 5976.6051,213.11411 5947.226,212.90611 5923.0403,212.28321 5917.1051,211.58171 5911.6051,210.93171 5898.5416,210.28161 5888.0751,210.13711 5865.8079,209.82951 5865.8156,209.83201 5854.8855,199.49001 5837.1044,182.66571 5833.2836,182.69501 5816.3727,199.78561 L 5805.6056,210.66711 5779.3553,210.07111 C 5764.9177,209.74331 5646.4247,207.92211 5516.0376,206.02411 4953.5403,197.83601 4916.8007,197.76611 4489.4561,204.07081 4322.6131,206.53221 4162.7051,209.01601 4134.1051,209.59041 4105.5051,210.16471 4059.3801,211.07291 4031.6051,211.60851 4003.8301,212.14421 3962.8801,213.03531 3940.6051,213.58891 3918.3301,214.14251 3881.4301,215.05071 3858.6051,215.60721 3835.7801,216.16361 3789.8801,217.28321 3756.6051,218.09501 3723.3301,218.90681 3691.8301,219.81021 3686.6051,220.10241 3681.3801,220.39471 3656.8551,221.08651 3632.1051,221.63971 3570.2321,223.02281 3516.0095,224.98641 3422.1051,229.24461 3378.1051,231.23981 3334.6801,232.91211 3325.6051,232.96071 3310.0403,233.04411 3308.6758,232.89461 3301.5299,230.32231 3297.3636,228.82251 3292.5238,227.59541 3290.7748,227.59541 3288.9737,227.59541 3284.0746,229.43831 3279.4768,231.84541 3271.7122,235.91031 3270.9831,236.09331 3262.7319,236.04741 3252.9693,235.99321 3247.2133,234.16261 3236.5705,227.72731 L 3230.2083,223.88041 3223.9987,228.13161 C 3213.404,235.38511 3200.9055,238.98531 3182.3828,240.11901 3177.2801,240.43141 3124.5051,242.91421 3065.1051,245.63641 2876.2273,254.29231 2853.9521,255.63451 2617.6051,272.60061 2542.6921,277.97821 2462.4193,283.41681 2461.9146,283.14891 2461.8099,283.09331 2461.257,279.32171 2460.6859,274.76761 2458.8719,260.30051 2455.6487,256.59541 2444.8773,256.59541 2434.8346,256.59541 2432.0222,260.41191 2430.9517,275.49281 2430.3585,283.84991 2430.1569,284.47861 2427.7121,285.59321 2426.2783,286.24691 2419.3688,287.18881 2412.3577,287.68621 2377.4636,290.16201 2231.3783,302.26671 2183.6051,306.64081 2100.3914,314.25991 1879.7963,337.43261 1764.6153,350.65421 1395.9651,392.97161 1078.7412,442.11411 758.60506,506.49961 523.93386,553.69651 279.72365,615.07891 99.10509,672.26531 84.255089,676.96711 62.20509,683.88941 50.10509,687.64831 38.00509,691.40721 22.26747,696.30801 15.1326,698.53901 7.9977205,700.77001 1.8102205,702.59541 1.3826005,702.59541 0.9549705,702.59541 0.6050905,544.42041 0.6050905,351.09541 L 0.6050905,-0.4045934 2062.8551,-0.3727934 C 3881.2611,-0.3446934 4124.8686,-0.1664934 4123.1051,1.1349066 4111.7282,9.530707 4108.8829,19.568207 4114.9467,29.915307 4122.2533,42.383107 4137.8894,44.157207 4148.3422,33.704507 4157.7901,24.256507 4156.0954,9.559707 4144.6701,1.8602066 L 4141.3093,-0.4045934 5006.2072,-0.3021934 C 5481.9011,-0.2458934 5869.7551,0.1288066 5868.1051,0.5305066 5857.9976,2.991107 5850.6051,11.917807 5850.6051,21.662207 5850.6051,29.209607 5855.7398,36.582807 5863.8921,40.741807 5875.7097,46.770707 5891.454,37.596807 5893.3331,23.587007 5894.584,14.260207 5886.1333,3.084407 5876.0408,0.7188066 5873.6273,0.1531066 6235.375,-0.2424934 6811.3551,-0.3040934 L 7750.6051,-0.4045934 7750.6051,1113.0954 7750.6051,2226.5954 3875.6051,2226.5954 0.6050905,2226.5954 0.6050905,1595.8109 z M 3308.5181,2102.0954 3441.585,2072.0954 3441.5951,1811.3454 3441.6051,1550.5954 3278.6051,1550.5954 3115.6051,1550.5954 3115.6051,1642.0954 3115.6051,1733.5954 3144.1051,1733.5954 3172.6051,1733.5954 3172.6051,1794.1279 3172.6051,1854.6603 3088.3551,1854.3779 3004.1051,1854.0954 2998.1051,1851.692 C 2990.4908,1848.642 2985.5585,1843.7097 2982.5085,1836.0954 L 2980.1051,1830.0954 2980.1051,1640.0954 C 2980.1051,1456.3351 2980.1673,1449.9058 2981.9992,1444.3225 2986.0515,1431.9716 2994.4483,1426.4389 3011.9371,1424.5961 3017.4757,1424.0125 3093.2539,1423.6232 3203.3551,1423.6127 3312.4185,1423.6024 3385.6051,1423.2293 3385.6051,1422.6836 3385.6051,1422.1822 3374.5801,1368.3537 3361.1051,1303.0649 3347.6301,1237.776 3336.6051,1184.1863 3336.6051,1183.9766 3336.6051,1183.0563 2866.1509,1183.6813 2852.6051,1184.6196 2794.6366,1188.6351 2759.5158,1201.2679 2734.8277,1226.9837 2708.7416,1254.1556 2697.3616,1291.0299 2694.5956,1357.3478 2693.3337,1387.6032 2693.3478,1895.6528 2694.6113,1922.6741 2696.6445,1966.1555 2702.533,1994.073 2714.5988,2017.4356 2733.8709,2054.7514 2766.4073,2073.8264 2823.1051,2081.049 2848.1173,2084.2352 2866.3767,2084.5646 3018.8551,2084.5799 L 3172.6051,2084.5954 3172.6051,2108.6687 C 3172.6051,2128.9734 3172.8279,2132.6914 3174.0281,2132.4187 3174.8108,2132.2409 3235.3313,2118.5954 3308.5181,2102.0954 z M 3849.8526,1888.0665 3850.1051,1691.5376 3961.2719,1887.8165 4072.4387,2084.0954 4211.5219,2084.3489 4350.6051,2084.6024 4350.6051,1634.0989 4350.6051,1183.5954 4209.1075,1183.5954 4067.61,1183.5954 4067.3575,1384.9384 4067.1051,1586.2813 3956.0111,1385.1884 3844.9172,1184.0954 3706.2611,1183.8419 3567.6051,1183.5884 3567.6051,1634.0919 3567.6051,2084.5954 3708.6026,2084.5954 3849.6001,2084.5954 3849.8526,1888.0665 z M 5082.6184,2071.3454 C 5084.3757,2064.0579 5097.4586,2011.0704 5111.6916,1953.5954 5125.9246,1896.1204 5137.8113,1848.0829 5138.1065,1846.8454 L 5138.6432,1844.5954 4949.1242,1844.5954 4759.6051,1844.5954 4759.6051,1794.5954 4759.6051,1744.5954 4920.1097,1744.5954 5080.6142,1744.5954 5080.3597,1638.8454 5080.1051,1533.0954 4919.8551,1532.8424 4759.6051,1532.5893 4759.6051,1478.0949 4759.6051,1423.6006 4947.8769,1423.348 5136.1487,1423.0954 5111.4294,1303.5954 C 5097.8337,1237.8704 5086.6864,1183.9829 5086.6576,1183.8454 5086.6287,1183.7079 4949.8051,1183.5954 4782.6051,1183.5954 L 4478.6051,1183.5954 4478.6051,1634.0954 4478.6051,2084.5954 4779.0142,2084.5954 5079.4234,2084.5954 5082.6184,2071.3454 z M 5739.6051,1754.0954 5739.6051,1423.5954 5849.6051,1423.5954 C 5924.7619,1423.5954 5959.6051,1423.2675 5959.6051,1422.5603 5959.6051,1421.9909 5948.7747,1370.3534 5935.5374,1307.8103 5922.3002,1245.2671 5910.988,1191.7322 5910.3991,1188.8439 L 5909.3284,1183.5923 5586.8154,1183.8439 5264.3024,1184.0954 5238.9889,1303.5954 C 5225.0666,1369.3204 5213.6597,1423.2059 5213.6403,1423.341 5213.6209,1423.4761 5263.2176,1423.7011 5323.8551,1423.841 L 5434.1051,1424.0954 5434.3566,1754.3454 5434.6081,2084.5954 5587.1066,2084.5954 5739.6051,2084.5954 5739.6051,1754.0954 z M 6217.9995,2082.8454 C 6218.2905,2081.8829 6222.6199,2061.0704 6227.6204,2036.5954 6232.6208,2012.1204 6236.9618,1991.0829 6237.267,1989.8454 L 6237.8219,1987.5954 6353.5791,1987.5954 6469.3363,1987.5954 6473.5184,2009.3454 C 6475.8186,2021.3079 6480.0211,2043.1329 6482.8574,2057.8454 L 6488.0143,2084.5954 6635.4263,2084.5954 6782.8383,2084.5954 6782.3188,2081.8454 C 6782.0331,2080.3329 6730.7931,1877.6094 6668.4522,1631.3487 L 6555.1051,1183.6021 6352.224,1183.8487 6149.3429,1184.0954 6035.9942,1634.0954 C 5973.6524,1881.5954 5922.6364,2084.2079 5922.6253,2084.3454 5922.6142,2084.4829 5988.9498,2084.5954 6070.0377,2084.5954 6209.5815,2084.5954 6217.4986,2084.5018 6217.9995,2082.8454 z M 6277.6051,1795.0222 C 6277.6051,1793.8591 6351.7237,1432.017 6352.4021,1429.8687 6353.0285,1427.8848 6367.7113,1498.4347 6420.1401,1755.3454 L 6428.3541,1795.5954 6352.9796,1795.5954 C 6311.5236,1795.5954 6277.6051,1795.3375 6277.6051,1795.0222 z M 7172.6051,1945.0954 7172.6051,1805.5954 7194.8551,1805.6128 C 7219.3222,1805.6319 7226.4589,1806.593 7236.2682,1811.19 7244.497,1815.0463 7254.0085,1824.9508 7259.3561,1835.2319 7262.1551,1840.613 7277.6006,1884.1294 7304.9654,1963.7319 L 7346.3425,2084.0954 7504.4738,2084.3485 C 7591.446,2084.4877 7662.6051,2084.4706 7662.6051,2084.3105 7662.6051,2082.0366 7570.3188,1822.5187 7567.1789,1815.9629 7561.585,1804.2833 7555.2099,1794.8051 7547.8988,1787.2981 7538.7314,1777.8849 7529.9191,1772.5918 7515.1257,1767.6129 L 7507.1464,1764.9274 7517.6257,1764.2524 C 7536.1898,1763.0566 7551.2438,1758.842 7568.6051,1749.9799 7581.6013,1743.346 7589.8205,1737.2088 7600.2309,1726.3651 7622.3912,1703.2824 7635.5246,1671.959 7638.5989,1634.8567 7639.8923,1619.2474 7639.8679,1386.5373 7638.5704,1363.0954 7636.3384,1322.7692 7629.3201,1292.6257 7616.0123,1266.2084 7609.3903,1253.0631 7602.2775,1243.2451 7591.6191,1232.5374 7563.5647,1204.3533 7522.7717,1189.0336 7464.1051,1184.6497 7454.8317,1183.9567 7353.6322,1183.6022 7164.3551,1183.5995 L 6878.6051,1183.5954 6878.6051,1634.0954 6878.6051,2084.5954 7025.6051,2084.5954 7172.6051,2084.5954 7172.6051,1945.0954 z M 7167.6051,1506.0954 7167.6051,1411.5954 7242.8551,1411.6102 C 7324.3759,1411.6262 7324.8701,1411.6556 7335.6602,1417.1233 7346.4888,1422.6106 7353.1238,1431.4836 7356.6198,1445.1527 7358.4675,1452.3773 7358.6042,1456.2831 7358.592,1501.5054 7358.5773,1555.6751 7357.9906,1561.9457 7351.7875,1574.2342 7346.015,1585.6693 7339.5646,1590.9417 7326.1701,1595.173 7310.4042,1600.1535 7303.4314,1600.5573 7232.8551,1600.5771 L 7167.6051,1600.5954 7167.6051,1506.0954 z M 1808.8568,1247.0709 C 1813.5823,1242.3455 1812.9176,1233.8426 1807.6082,1231.097 1801.5942,1227.9871 1795.5846,1230.0068 1793.0904,1235.9763 1790.248,1242.7791 1794.7598,1249.5954 1802.1051,1249.5954 1805.2918,1249.5954 1806.9538,1248.974 1808.8568,1247.0709 z M 1956.057,1157.7197 C 1972.3025,1150.5335 1979.3389,1131.6535 1971.6173,1115.9686 1966.2124,1104.9898 1956.348,1099.1606 1943.1051,1099.12 1936.5448,1099.0998 1934.1153,1099.5618 1929.6051,1101.687 1919.2008,1106.5895 1912.1034,1116.3818 1910.9878,1127.3733 1909.6215,1140.8356 1920.2599,1155.2451 1934.5557,1159.2954 1940.412,1160.9546 1950.3984,1160.2228 1956.057,1157.7197 z M 1779.6051,1149.5954 C 1782.337,1146.8635 1782.3693,1139.3596 1779.6609,1136.6512 1776.7901,1133.7804 1771.1666,1132.9975 1768.0561,1135.0356 1762.8956,1138.4168 1762.5513,1144.7875 1767.2916,1149.1806 1770.6359,1152.2801 1776.7157,1152.4848 1779.6051,1149.5954 z M 7314.3551,1078.3177 C 7315.9433,1077.0888 7315.9719,1073.3622 7314.4051,1071.7954 7313.7451,1071.1354 7312.0351,1070.5954 7310.6051,1070.5954 7307.4115,1070.5954 7305.6051,1072.273 7305.6051,1075.2387 7305.6051,1079.4808 7310.5866,1081.2337 7314.3551,1078.3177 z M 2699.4319,1073.6758 C 2699.8797,1070.674 2697.9049,1068.5954 2694.6051,1068.5954 2689.2373,1068.5954 2687.7812,1074.8909 2692.5957,1077.2826 2695.6535,1078.8015 2698.9247,1077.0755 2699.4319,1073.6758 z M 7524.6051,1070.7232 C 7524.6051,1070.2435 7526.4051,1069.5632 7528.6051,1069.2114 7530.8051,1068.8596 7532.6051,1068.1759 7532.6051,1067.692 7532.6051,1067.2081 7533.7287,1066.5302 7535.102,1066.1855 7537.9699,1065.4657 7548.6051,1055.0691 7548.6051,1052.9854 7548.6051,1052.2209 7549.0551,1051.5954 7549.6051,1051.5954 7550.1551,1051.5954 7550.6051,1050.9428 7550.6051,1050.1451 7550.6051,1049.3474 7551.3926,1048.2541 7552.3551,1047.7154 7553.8502,1046.8787 7554.1051,1045.1912 7554.1051,1036.1293 7554.1051,1029.3656 7553.6977,1025.2639 7552.9807,1024.8089 7552.3623,1024.4165 7551.5391,1022.6329 7551.1513,1020.8454 7550.7635,1019.0579 7550.0807,1017.5954 7549.6341,1017.5954 7549.1874,1017.5954 7548.5251,1016.4127 7548.1623,1014.9673 7547.7995,1013.5218 7546.1757,1011.0122 7544.5539,1009.3903 7542.9321,1007.7685 7541.6051,1005.8315 7541.6051,1005.0859 7541.6051,1004.3402 7540.6348,1003.4222 7539.449,1003.0458 7538.2631,1002.6695 7536.1942,1001.1766 7534.8513,999.7285 7532.5009,997.1937 7532.0016,997.0954 7521.4707,997.0954 7514.193,997.0954 7510.2895,997.4873 7509.8083,998.2661 7509.4105,998.91 7507.8521,999.7463 7506.3451,1000.1245 7504.8381,1000.5028 7503.6051,1001.2134 7503.6051,1001.7038 7503.6051,1002.1942 7503.1022,1002.5954 7502.4875,1002.5954 7501.0331,1002.5954 7493.6051,1010.0234 7493.6051,1011.4778 7493.6051,1012.0925 7492.9301,1012.5954 7492.1051,1012.5954 7491.2801,1012.5954 7490.6051,1013.2704 7490.6051,1014.0954 7490.6051,1014.9204 7490.2039,1015.5954 7489.7135,1015.5954 7489.2231,1015.5954 7488.5125,1016.8284 7488.1342,1018.3354 7487.756,1019.8424 7486.9197,1021.4009 7486.2758,1021.7988 7484.5738,1022.8506 7484.648,1046.7753 7486.3551,1047.3449 7487.0426,1047.5744 7487.6051,1048.5924 7487.6051,1049.6073 7487.6051,1050.6222 7488.2207,1052.0682 7488.9732,1052.8206 7489.7256,1053.573 7490.6631,1055.2026 7491.0564,1056.4419 7491.8239,1058.8601 7498.0862,1065.5954 7499.567,1065.5954 7500.0594,1065.5954 7501.1817,1066.3149 7502.0611,1067.1942 7502.9404,1068.0736 7505.4476,1069.0328 7507.6325,1069.3259 7509.8174,1069.619 7511.6051,1070.2495 7511.6051,1070.7271 7511.6051,1071.2047 7514.5301,1071.5954 7518.1051,1071.5954 7521.6801,1071.5954 7524.6051,1071.2029 7524.6051,1070.7232 z M 2060.272,1054.0194 C 2062.4409,1051.8505 2062.7632,1050.8109 2062.3113,1047.4418 2061.6228,1042.3088 2059.155,1039.5911 2055.2001,1039.6107 2051.5455,1039.6288 2050.3047,1040.3351 2048.7548,1043.2797 2046.8297,1046.9371 2047.3723,1051.4535 2050.0596,1054.1409 2053.2321,1057.3133 2057.0232,1057.2682 2060.272,1054.0194 z M 7098.8551,1046.7883 C 7100.8639,1045.0632 7101.1735,1040.5638 7099.4051,1038.7954 7097.2854,1036.6757 7092.9075,1037.3955 7090.6777,1040.2303 7087.3218,1044.4965 7088.2458,1047.763 7093.1051,1048.8119 7095.354,1049.2973 7096.336,1048.9517 7098.8551,1046.7883 z M 2915.3551,1045.3285 C 2917.1921,1043.8912 2916.8823,1041.2175 2914.5325,1038.2303 2912.3027,1035.3955 2907.9248,1034.6757 2905.8051,1036.7954 2903.7295,1038.871 2904.4012,1043.2898 2907.117,1045.4261 2909.6279,1047.4012 2912.7533,1047.3642 2915.3551,1045.3285 z M 7408.589,1042.8887 C 7410.7592,1040.1297 7410.6863,1036.6031 7408.4023,1033.851 7406.8116,1031.9344 7401.846,1032.3545 7399.6051,1034.5954 7397.2137,1036.9868 7397.1515,1037.8175 7399.0841,1041.5547 7401.5574,1046.3377 7405.4467,1046.8835 7408.589,1042.8887 z M 2603.0603,1042.9742 C 2604.6766,1042.354 2607.6051,1037.6314 2607.6051,1035.6451 2607.6051,1033.5731 2603.5495,1030.5954 2600.7275,1030.5954 2595.4935,1030.5954 2593.1484,1036.4737 2596.6212,1040.8887 2598.7857,1043.6405 2600.1622,1044.0863 2603.0603,1042.9742 z M 2486.4086,1038.5357 C 2495.7365,1033.8745 2500.6051,1026.8313 2500.6051,1017.9982 2500.6051,1009.6066 2495.4347,1001.6886 2487.1051,997.3244 2481.401,994.3357 2470.6264,994.3389 2464.9706,997.3309 2453.1877,1003.5644 2447.4603,1016.2948 2452.3551,1025.3719 2454.6536,1029.6344 2461.245,1036.3578 2465.0585,1038.3299 2473.0374,1042.4559 2478.459,1042.5082 2486.4086,1038.5357 z M 7201.7538,1022.7551 C 7206.8918,1017.0046 7205.1524,1005.4811 7198.6378,1002.1123 7190.4038,997.8544 7179.0288,1002.8369 7177.1176,1011.5387 7176.2533,1015.4737 7179.2741,1021.4618 7183.6051,1024.3989 7186.5558,1026.3999 7188.0308,1026.7076 7193.0038,1026.3593 7198.1155,1026.0014 7199.2828,1025.5205 7201.7538,1022.7551 z M 2821.7072,1022.3104 C 2825.9427,1019.4622 2828.9507,1013.4456 2828.0926,1009.5387 2825.544,997.9348 2807.3519,994.4492 2802.122,1004.5627 2799.8402,1008.9753 2800.1522,1016.7499 2802.7432,1020.0439 2805.4208,1023.4478 2807.873,1024.4517 2813.7072,1024.532 2816.921,1024.5763 2819.3344,1023.9061 2821.7072,1022.3104 z M 7169.5284,976.00653 C 7173.6044,972.5768 7173.7953,967.67681 7169.9702,964.668 7168.5211,963.52808 7166.5306,962.59542 7165.547,962.59542 7163.0278,962.59542 7157.6051,967.40359 7157.6051,969.63726 7157.6051,972.94181 7159.8252,976.4998 7162.4996,977.4813 7166.2089,978.84263 7166.1409,978.8569 7169.5284,976.00653 z M 2842.318,975.54564 C 2848.0351,973.55265 2849.188,967.10515 2844.5284,963.18431 2840.8078,960.0537 2838.7116,959.93718 2835.24,962.668 2831.4149,965.67681 2831.6058,970.5768 2835.6818,974.00653 2839.2702,977.02594 2838.5505,976.85902 2842.318,975.54564 z M 7107.3551,971.05728 C 7110.6703,967.26561 7110.4419,961.27676 7106.8551,957.94694 7104.444,955.70854 7103.4425,955.44861 7098.728,955.8375 7092.3967,956.35975 7089.6628,958.99899 7089.6273,964.62291 7089.567,974.19751 7100.9858,978.34202 7107.3551,971.05728 z M 2913.6111,968.86064 C 2916.123,965.66736 2916.1699,959.88792 2913.71,956.68824 2912.2682,954.81281 2910.6715,954.18307 2906.4822,953.8375 2901.7677,953.44861 2900.7662,953.70854 2898.3551,955.94694 2896.2586,957.89323 2895.6051,959.42978 2895.6051,962.41281 2895.6051,972.28291 2907.5536,976.56157 2913.6111,968.86064 z M 664.60506,966.66367 C 668.35026,964.01668 668.56136,958.49281 665.02376,955.71011 661.49106,952.9313 655.32616,952.87437 652.60506,955.59542 647.57916,960.62138 653.23806,970.69038 660.10506,968.9403 661.20506,968.65996 663.23006,967.63548 664.60506,966.66367 z M 7338.6224,907.9261 C 7344.5387,904.4313 7344.9604,897.44311 7339.5011,893.36711 7337.2475,891.68451 7336.3797,891.57901 7332.7764,892.54931 7328.1482,893.79551 7326.6051,895.86821 7326.6051,900.83851 7326.6051,904.46817 7327.9279,906.70291 7331.1051,908.44069 7333.879,909.95787 7335.3538,909.85691 7338.6224,907.9261 z M 2674.5336,906.13241 C 2677.7084,904.49065 2678.6051,902.79821 2678.6051,898.44791 2678.6051,893.87291 2676.9607,891.76831 2672.4338,890.54931 2668.8305,889.57901 2667.9627,889.68451 2665.7091,891.36711 2660.3182,895.39191 2660.6576,902.30196 2666.4218,905.87765 2669.7495,907.94194 2670.9608,907.97998 2674.5336,906.13241 z M 1617.9702,899.52281 C 1621.7205,896.57291 1621.7232,890.37411 1617.9754,887.91851 1609.2378,882.19341 1598.8734,891.95461 1606.0596,899.14091 1609.1535,902.2347 1614.3123,902.40014 1617.9702,899.52281 z M 581.68206,897.67231 C 585.13756,894.21681 585.52236,889.94971 582.69346,886.45621 580.21676,883.39761 571.93976,883.07761 568.80006,885.91901 564.32996,889.96431 565.38006,896.72511 570.84746,899.10131 575.77716,901.24381 578.46506,900.88931 581.68206,897.67231 z M 519.77636,892.94041 C 522.44136,890.52861 522.12346,886.16511 519.14026,884.21041 516.00046,882.15311 513.73836,882.16491 511.43386,884.25041 509.12206,886.34261 509.14426,887.32731 511.59416,891.34541 513.81566,894.98891 516.85756,895.58191 519.77636,892.94041 z M 6843.682,883.67231 C 6847.2892,880.06511 6847.453,876.35241 6844.1506,873.05001 6840.9808,869.88021 6838.1165,869.94051 6835.0574,873.24141 6831.5266,877.05121 6831.4056,881.97711 6834.7725,884.84541 6837.7214,887.35761 6840.3417,887.01261 6843.682,883.67231 z M 1559.1112,882.34381 C 1560.8772,880.82481 1561.9129,878.71921 1562.2949,875.87181 1562.8103,872.02901 1562.5452,871.33551 1559.333,868.12331 1555.4724,864.26271 1553.0343,863.80501 1548.5851,866.10581 1544.927,867.99741 1543.5412,870.54141 1543.3336,875.74621 1543.2008,879.07551 1543.6806,880.26361 1545.9438,882.21031 1549.6295,885.38061 1555.5114,885.44021 1559.1112,882.34381 z M 3170.4377,882.84541 C 3173.8046,879.97711 3173.6836,875.05121 3170.1528,871.24141 3167.0937,867.94051 3164.2294,867.88021 3161.0596,871.05001 3157.7572,874.35241 3157.921,878.06511 3161.5282,881.67231 3164.8685,885.01261 3167.4888,885.35761 3170.4377,882.84541 z M 6666.2226,874.68171 C 6671.6472,872.21821 6673.6051,869.23951 6673.6051,863.44961 6673.6051,854.12341 6665.7401,849.12801 6654.8823,851.55791 6644.2498,853.93731 6639.8273,861.52741 6644.5553,869.28161 6647.3762,873.90781 6650.4899,875.25461 6661.1051,876.43981 6661.6551,876.50121 6663.958,875.71011 6666.2226,874.68171 z M 3355.8993,871.90701 C 3359.5316,870.07581 3362.5966,864.97131 3362.6014,860.74541 3362.6098,853.16391 3349.992,846.66491 3340.6804,849.45471 3334.9606,851.16841 3331.6051,855.60341 3331.6051,861.44961 3331.6051,867.23331 3333.5696,870.22961 3338.9374,872.63281 3343.5046,874.67761 3351.0435,874.35501 3355.8993,871.90701 z M 665.35506,867.60641 C 668.48176,865.70001 669.04016,864.43101 668.66006,860.09541 668.17546,854.56681 658.55046,852.55911 654.05966,857.05001 649.20196,861.90771 652.25876,869.60001 659.04366,869.59171 660.72746,869.58961 663.56756,868.69621 665.35506,867.60641 z M 6251.6316,826.57061 C 6255.0264,823.39941 6255.5286,819.28201 6253.0947,814.57541 6251.2864,811.07841 6248.7918,809.59541 6244.7179,809.59541 6232.9001,809.59541 6230.7689,824.39711 6241.9121,829.08241 6245.6532,830.65551 6247.8729,830.08181 6251.6316,826.57061 z M 3768.0958,823.42411 C 3772.1029,818.66191 3770.9848,811.00071 3765.9478,808.70571 3762.8933,807.31401 3758.0694,807.27661 3755.5497,808.62501 3751.0142,811.05241 3749.1607,819.65641 3752.3551,823.45461 3757.1468,829.15211 3763.286,829.14021 3768.0958,823.42411 z M 745.93496,808.52081 C 748.95356,807.68261 750.08556,806.68981 751.27866,803.83431 752.64006,800.57611 752.63256,799.87611 751.20406,796.88071 746.84406,787.73751 733.60506,790.85051 733.60506,801.01891 733.60506,808.80631 737.14666,810.96111 745.93496,808.52081 z M 1642.6278,805.58331 C 1645.0777,804.27211 1646.1664,798.52371 1644.5469,795.45071 1642.8951,792.31641 1641.7102,791.62891 1637.9277,791.61071 1634.4278,791.59391 1630.6051,795.34491 1630.6051,798.79601 1630.6051,801.03281 1632.4086,804.76431 1634.0048,805.83011 1635.6016,806.89631 1640.4328,806.75801 1642.6278,805.58331 z M 1325.0065,791.20101 C 1331.5957,788.44791 1333.3643,782.49411 1329.3551,776.56201 1326.679,772.60241 1322.5797,771.25591 1317.4258,772.64371 1305.5403,775.84411 1307.8936,791.62641 1320.3872,792.50521 1321.0924,792.55481 1323.1711,791.96791 1325.0065,791.20101 z M 6836.3495,774.39261 C 6837.0401,773.81941 6837.6051,771.80771 6837.6051,769.92191 6837.6051,766.93541 6837.1444,766.30091 6834.0317,765.00031 6825.9878,761.63941 6821.519,768.50931 6827.7172,774.70751 6829.8417,776.83201 6833.5742,776.69591 6836.3495,774.39261 z M 3177.5797,772.62081 C 3183.7289,766.47161 3179.1477,759.67051 3171.1166,763.02611 3167.7454,764.43471 3167.504,764.81761 3167.7932,768.29721 3168.0281,771.12311 3168.7223,772.36001 3170.6051,773.30771 3174.0406,775.03681 3175.2864,774.91411 3177.5797,772.62081 z M 6428.082,773.42401 C 6431.138,772.03161 6432.2898,768.39351 6430.7467,765.00691 6427.1253,757.05861 6413.8601,761.50661 6415.9813,769.95801 6417.0265,774.12241 6422.8734,775.79721 6428.082,773.42401 z M 3588.32,769.97061 C 3591.4937,765.63031 3588.4356,759.90761 3582.4286,758.94611 3579.3655,758.45581 3578.3227,758.78691 3576.1786,760.93101 3570.5822,766.52741 3574.6434,773.16021 3583.07,772.18631 3585.2631,771.93281 3587.6092,770.94271 3588.32,769.97061 z M 1030.6051,768.59541 C 1033.4826,765.71791 1033.1939,761.20371 1029.9702,758.66801 1024.3462,754.24411 1015.6051,757.24241 1015.6051,763.59541 1015.6051,767.85121 1019.0113,770.59541 1024.2937,770.59541 1027.2718,770.59541 1029.2236,769.97691 1030.6051,768.59541 z M 1475.7377,763.58081 C 1478.3173,760.38401 1478.4803,759.72741 1477.5399,756.32131 1475.5612,749.15531 1466.5555,746.62671 1461.9755,751.95121 1458.4882,756.00541 1458.6481,762.69751 1462.3009,765.57081 1466.5047,768.87751 1472.1365,768.04341 1475.7377,763.58081 z M 6594.7764,732.94041 C 6596.8654,731.04981 6597.1723,727.56261 6595.4051,725.79541 6594.7451,725.13541 6592.8101,724.59541 6591.1051,724.59541 6585.8494,724.59541 6584.113,728.02021 6587.1618,732.37291 6589.0052,735.00471 6592.2298,735.24501 6594.7764,732.94041 z M 3418.5736,729.35401 C 3420.5755,725.77061 3419.0632,723.21021 3414.6889,722.77721 3409.0816,722.22201 3406.616,726.73991 3410.3029,730.81401 3412.6817,733.44261 3416.6841,732.73601 3418.5736,729.35401 z M 1058.8708,711.77421 C 1061.8897,708.75531 1062.2307,702.64751 1059.569,699.27071 1056.417,695.27201 1053.179,694.24731 1049.5785,696.10911 1045.8651,698.02941 1044.6051,700.42761 1044.6051,705.57511 1044.6051,711.41591 1048.2974,715.06931 1053.3688,714.24631 1055.358,713.92351 1057.8339,712.81101 1058.8708,711.77421 z M 1700.3826,697.03871 C 1703.0728,695.15441 1703.4254,689.21161 1701.0484,685.81791 1697.5228,680.78441 1688.6196,685.45441 1690.1163,691.55211 1691.7354,698.14841 1695.7415,700.28941 1700.3826,697.03871 z M 5780.9698,689.95801 C 5787.5477,683.38011 5786.4333,674.58901 5778.5089,670.54631 5773.3691,667.92421 5768.8244,668.53421 5764.4626,672.43151 5760.9761,675.54661 5759.5043,682.67011 5761.5554,686.50251 5764.8871,692.72791 5776.1884,694.73941 5780.9698,689.95801 z M 4239.2913,688.64521 C 4243.6356,685.99631 4244.9314,683.18241 4244.317,677.73141 4243.3345,669.01511 4234.6542,664.48911 4226.7013,668.54631 4218.7769,672.58901 4217.6625,681.38011 4224.2404,687.95801 4227.5604,691.27801 4234.4569,691.59291 4239.2913,688.64521 z M 2010.6051,686.51871 C 2023.4959,680.69571 2029.4423,666.51251 2025.1097,651.92301 2023.3273,645.92081 2017.0223,638.35901 2011.4149,635.49841 1990.8006,624.98171 1969.0919,646.11881 1976.0224,669.95901 1980.3126,684.71661 1996.9539,692.68531 2010.6051,686.51871 z M 5734.1638,686.59541 C 5736.4621,686.59541 5738.7775,682.13031 5738.0279,679.14391 5736.9803,674.97001 5733.4545,673.16001 5729.1431,674.58291 5725.7256,675.71071 5725.6051,675.91921 5725.6051,680.70521 5725.6051,684.90851 5725.9463,685.79711 5727.8551,686.56511 5729.0926,687.06301 5730.7044,687.27351 5731.4369,687.03291 5732.1694,686.79231 5733.3965,686.59541 5734.1638,686.59541 z M 4279.509,683.04851 C 4280.8906,681.73741 4281.2954,676.52141 4280.1584,674.68171 4279.8388,674.16451 4277.9914,673.21791 4276.0532,672.57831 4271.7566,671.16031 4268.2283,672.97621 4267.1823,677.14391 4265.5456,683.66511 4274.3933,687.90321 4279.509,683.04851 z M 7231.6708,670.56021 C 7235.6545,668.42821 7233.3066,659.59541 7228.7562,659.59541 7225.9928,659.59541 7222.6051,662.53321 7222.6051,664.92961 7222.6051,670.14321 7227.1619,672.97331 7231.6708,670.56021 z M 2781.0484,667.37291 C 2783.2452,664.23651 2782.9808,660.97201 2780.3826,659.15211 2775.8152,655.95301 2771.6051,658.33451 2771.6051,664.11711 2771.6051,669.51911 2778.0007,671.72411 2781.0484,667.37291 z M 4346.3443,664.98421 C 4355.7298,658.12441 4352.7532,647.01361 4340.8691,644.54641 4328.9219,642.06621 4320.6051,646.64071 4320.6051,655.69211 4320.6051,661.24241 4323.3788,664.72621 4329.6051,666.99601 4333.0639,668.25691 4343.5989,666.99081 4346.3443,664.98421 z M 1363.0484,660.37291 C 1366.3612,655.64321 1363.8875,647.59541 1359.121,647.59541 1353.9574,647.59541 1350.5923,656.71381 1354.2601,660.76671 1356.5717,663.32101 1361.1264,663.11691 1363.0484,660.37291 z M 5744.3826,651.03871 C 5745.9206,649.96141 5746.6051,648.45921 5746.6051,646.16111 5746.6051,642.35821 5745.2078,640.86591 5740.8261,639.98961 5738.3542,639.49521 5737.2254,639.88421 5735.1714,641.93821 5732.0897,645.01991 5731.9018,647.89211 5734.6051,650.59541 5736.9976,652.98791 5741.3199,653.18391 5744.3826,651.03871 z M 4270.6051,648.59541 C 4273.3084,645.89211 4273.1205,643.01991 4270.0388,639.93821 4267.9848,637.88421 4266.856,637.49521 4264.3841,637.98961 4260.0024,638.86591 4258.6051,640.35821 4258.6051,644.16111 4258.6051,650.01631 4266.3298,652.87081 4270.6051,648.59541 z M 2861.4116,645.00451 C 2864.2712,643.57961 2866.3396,641.97481 2866.0081,641.43851 2865.6766,640.90211 2863.5828,639.14301 2861.3552,637.52941 2858.4057,635.39271 2856.1637,634.59541 2853.1051,634.59541 2850.0465,634.59541 2847.8045,635.39271 2844.855,637.52941 2842.6274,639.14301 2840.5043,640.94961 2840.137,641.54391 2839.2552,642.97061 2849.1744,647.57291 2853.1588,647.58561 2854.8383,647.59101 2858.5521,646.42951 2861.4116,645.00451 z M 7108.0654,644.04721 C 7109.8598,643.19571 7111.8477,641.35851 7112.4828,639.96451 7115.0947,634.23201 7109.003,624.58801 7102.7784,624.60101 7097.9521,624.61111 7092.7322,626.61831 7090.6506,629.26471 7086.8467,634.10061 7088.6516,642.46081 7093.9621,644.60381 7097.4199,645.99921 7104.5444,645.71801 7108.0654,644.04721 z M 2914.256,640.21491 C 2917.2673,636.71411 2917.404,630.88081 2914.5596,627.26471 2912.478,624.61831 2907.2581,622.61111 2902.4318,622.60101 2896.2152,622.58801 2890.1153,632.23161 2892.7218,637.95211 2894.4955,641.84501 2899.15,643.72031 2906.006,643.30411 2910.9533,643.00381 2912.2864,642.50471 2914.256,640.21491 z M 7294.6251,642.08511 C 7298.3844,640.14101 7299.6051,637.76311 7299.6051,632.38371 7299.6051,626.90711 7297.5637,623.96291 7292.7708,622.52691 7284.3405,620.00111 7277.0079,627.32121 7279.5314,635.74371 7281.6114,642.68601 7288.1503,645.43331 7294.6251,642.08511 z M 2721.9462,639.54181 C 2728.3728,634.48661 2727.2414,624.01271 2719.9392,620.96161 2715.4016,619.06571 2709.5693,620.38081 2707.1413,623.84721 2705.3941,626.34161 2705.0971,633.77771 2706.6302,636.64241 2709.1866,641.41901 2717.5475,643.00171 2721.9462,639.54181 z M 3337.2421,634.67291 C 3342.7142,632.18811 3349.0966,626.31931 3352.3335,620.79581 3354.354,617.34821 3355.052,614.58921 3355.3927,608.70411 3356.1043,596.41111 3351.7386,588.75571 3341.0025,583.47031 3335.5439,580.78301 3333.5107,580.32751 3326.866,580.30291 3308.9667,580.23681 3299.3482,589.72701 3299.2048,607.59541 3299.1437,615.20431 3299.4464,616.65781 3302.0919,621.45961 3305.4126,627.48701 3311.729,633.16171 3317.3496,635.16751 3322.8664,637.13611 3332.336,636.90071 3337.2421,634.67291 z M 5884.6869,625.59541 C 5885.1919,625.59541 5886.5051,624.69541 5887.6051,623.59541 5890.4229,620.77761 5890.3214,614.34071 5887.4165,611.63441 5884.2509,608.68511 5878.2217,608.88791 5875.0596,612.05001 5872.3331,614.77651 5871.7502,620.04401 5873.8563,622.92421 5875.2391,624.81541 5880.3555,626.65461 5882.4369,626.00871 5883.1694,625.78141 5884.1819,625.59541 5884.6869,625.59541 z M 2854.0099,621.45681 C 2858.4633,619.42771 2861.0135,611.09561 2858.5755,606.54001 2857.1571,603.88971 2852.3844,601.59541 2848.2896,601.59541 2843.771,601.59541 2839.9025,604.77741 2838.6169,609.55161 2836.1025,618.88931 2844.8301,625.63941 2854.0099,621.45681 z M 4905.6051,612.25221 C 4914.0979,610.12061 4928.2135,603.93591 4934.8113,599.45541 4950.63,588.71311 4963.8489,570.32411 4970.6972,549.53411 4972.2376,544.85761 4975.6051,528.34261 4975.6051,525.46441 4975.6051,523.23311 4978.8465,525.04171 4982.7776,529.46651 4987.0713,534.29951 4999.4615,543.59541 5001.6097,543.59541 5002.2253,543.59541 5005.0636,544.66511 5007.917,545.97251 5017.6645,550.43851 5043.5574,552.85431 5049.8054,549.88061 5051.2906,549.17371 5054.3577,548.59541 5056.6212,548.59541 5058.8847,548.59541 5061.7089,548.07501 5062.8973,547.43901 5064.0857,546.80301 5066.4186,545.93381 5068.0816,545.50751 5088.4199,540.29311 5111.3478,521.30291 5115.9286,505.87781 5116.7495,503.11351 5118.0717,499.55661 5118.8667,497.97361 5122.7962,490.15001 5123.6209,459.36501 5120.048,453.88061 5119.2544,452.66241 5118.6051,450.33641 5118.6051,448.71161 5118.6051,447.08681 5117.9856,444.48351 5117.2284,442.92641 5116.4713,441.36941 5114.7838,437.86421 5113.4784,435.13721 5112.1731,432.41021 5109.8529,428.36021 5108.3223,426.13721 5106.7918,423.91421 5104.7844,420.97041 5103.8614,419.59541 5098.3351,411.36271 5081.0799,397.70441 5074.1051,396.04191 5072.4551,395.64861 5070.3958,394.71321 5069.5289,393.96341 5068.0063,392.64641 5064.2282,391.63881 5052.6051,389.45021 5041.9967,387.45261 5014.7042,390.09511 5010.1051,393.56511 5009.5551,393.98011 5007.7551,394.63311 5006.1051,395.01621 5001.9089,395.99051 4994.6051,399.59061 4994.6051,400.68461 4994.6051,401.18551 4994.0426,401.60361 4993.3551,401.61361 4991.7764,401.63661 4984.8941,406.32221 4981.6051,409.61321 4980.2301,410.98911 4977.9801,413.02261 4976.6051,414.13211 4972.201,417.68571 4964.9427,428.62781 4963.5441,433.82191 4962.9588,435.99551 4961.6406,439.42131 4960.6148,441.43471 4959.5889,443.44811 4958.4397,448.13291 4958.0608,451.84541 4957.682,455.55791 4957.1057,458.59541 4956.7801,458.59541 4956.4544,458.59541 4954.1444,456.45471 4951.6466,453.83841 4949.1488,451.22201 4945.5301,447.98121 4943.6051,446.63651 4941.6801,445.29191 4939.8801,443.88381 4939.6051,443.50751 4938.4318,441.90171 4919.1532,432.29081 4911.5107,429.50161 4897.737,424.47481 4885.8172,422.36881 4870.6051,422.27431 4848.291,422.13571 4832.8693,427.13231 4817.2145,439.57251 4809.7591,445.49711 4800.3171,455.93271 4797.5414,461.31611 4796.7532,462.84471 4795.8549,464.32041 4795.5451,464.59541 4794.4139,465.59981 4789.5776,478.25681 4788.094,484.09541 4785.6943,493.53961 4785.201,508.70351 4786.9555,519.09541 4789.6856,535.26641 4792.0138,542.31171 4799.4617,556.94091 4812.3389,582.23431 4835.0507,602.69811 4858.9653,610.55501 4871.3917,614.63761 4892.9718,615.42291 4905.6051,612.25221 z M 7189.6051,604.59541 C 7193.6991,600.50141 7191.1353,591.59541 7185.8628,591.59541 7179.9202,591.59541 7176.5316,599.19011 7180.1618,604.37291 7182.1429,607.20131 7186.8874,607.31311 7189.6051,604.59541 z M 2825.0484,602.37291 C 2828.6209,597.27251 2825.2797,589.59541 2819.4875,589.59541 2814.081,589.59541 2811.442,598.43231 2815.6051,602.59541 2818.3228,605.31311 2823.0673,605.20131 2825.0484,602.37291 z M 6774.4293,601.68511 C 6783.1946,597.21341 6789.551,585.38911 6788.1635,576.13661 6786.6769,566.22261 6776.829,555.65381 6767.63,554.09961 6758.0092,552.47421 6748.3874,557.29271 6742.902,566.48321 6737.3587,575.77091 6737.562,584.09451 6743.5338,592.33821 6751.6541,603.54811 6763.6587,607.17981 6774.4293,601.68511 z M 1422.9766,594.51791 C 1428.5157,590.16081 1428.4015,585.09281 1422.6977,582.14331 1416.6818,579.03231 1411.2756,580.51591 1407.4419,586.32981 1404.8255,590.29761 1405.1023,591.18071 1409.8551,594.02931 1415.0192,597.12441 1419.453,597.28951 1422.9766,594.51791 z M 1359.6403,592.07721 C 1365.0205,589.29501 1364.9096,581.59441 1359.4619,579.69531 1355.2228,578.21761 1353.0596,578.30901 1349.5699,580.11361 1344.0671,582.95921 1344.8059,589.47201 1350.9338,592.13761 1355.0294,593.91921 1356.0926,593.91181 1359.6403,592.07721 z M 7327.4824,583.17881 C 7329.4455,579.06421 7327.9695,575.19941 7324.2721,574.77271 7319.9951,574.27921 7316.6051,576.99661 7316.6051,580.91851 7316.6051,585.20441 7318.3009,586.75411 7322.5937,586.39111 7325.3271,586.16001 7326.3948,585.45841 7327.4824,583.17881 z M 5946.1506,583.14091 C 5950.5658,578.72571 5948.345,571.57221 5942.0701,569.99731 5937.3642,568.81621 5931.8494,574.44841 5933.0455,579.21401 5934.6266,585.51351 5941.668,587.62341 5946.1506,583.14091 z M 7367.1309,570.54541 C 7369.0654,566.80461 7368.2458,563.78951 7364.9544,562.53811 7361.1689,561.09891 7358.8019,561.39861 7356.6051,563.59541 7353.9659,566.23461 7354.0821,568.16331 7357.0596,571.14091 7360.6535,574.73481 7365.1005,574.47181 7367.1309,570.54541 z M 3365.6378,568.07851 C 3372.1241,564.72431 3373.5469,555.57601 3368.6365,548.79741 3364.7456,543.42621 3362.3683,542.26761 3356.4125,542.83991 3352.8103,543.18601 3350.7352,544.05471 3348.5815,546.11811 3341.8099,552.60561 3342.4705,564.17381 3349.8465,568.27021 3352.9851,570.01321 3362.1106,569.90251 3365.6378,568.07851 z M 5883.8053,566.54901 C 5886.4375,563.91681 5886.7716,562.99901 5886.2622,559.79901 5885.6116,555.71191 5881.7164,551.59541 5878.4997,551.59541 5875.2575,551.59541 5870.9056,554.34231 5870.2459,556.80541 5868.8953,561.84691 5869.5417,566.43761 5871.8276,568.03871 5875.5104,570.61821 5880.3363,570.01801 5883.8053,566.54901 z M 2848.4824,562.17881 C 2850.4455,558.06421 2848.9695,554.19941 2845.2721,553.77271 2840.9951,553.27921 2837.6051,555.99661 2837.6051,559.91851 2837.6051,564.20441 2839.3009,565.75411 2843.5937,565.39111 2846.3271,565.16001 2847.3948,564.45841 2848.4824,562.17881 z M 1894.1506,561.14091 C 1897.9419,557.34951 1897.149,551.44521 1892.5277,549.05541 1888.5913,547.01981 1886.8899,547.21961 1884.0596,550.05001 1881.1298,552.97971 1880.7216,558.96171 1883.2601,561.76671 1885.6972,564.45961 1891.1448,564.14661 1894.1506,561.14091 z M 2888.1309,549.54541 C 2890.0654,545.80461 2889.2458,542.78951 2885.9544,541.53811 2882.1689,540.09891 2879.8019,540.39861 2877.6051,542.59541 2874.9659,545.23461 2875.0821,547.16331 2878.0596,550.14091 2881.6535,553.73481 2886.1005,553.47181 2888.1309,549.54541 z M 1639.5325,542.96051 C 1642.0371,539.77651 1642.1439,537.84831 1639.9501,535.42411 1638.0959,533.37531 1631.7142,532.93151 1628.5394,534.63061 1625.7255,536.13651 1625.9049,541.99151 1628.8276,544.03871 1632.355,546.50941 1637.1183,546.02971 1639.5325,542.96051 z M 307.98543,542.08461 C 328.40955,536.76471 340.41473,518.21191 335.15049,500.10361 332.84118,492.15981 323.8622,482.98111 315.10509,479.61221 307.62458,476.73441 293.70157,475.76311 286.83178,477.63981 274.72128,480.94811 265.13588,487.88521 260.45046,496.73221 257.39374,502.50391 257.14979,515.24581 259.99359,520.59541 265.18011,530.35201 273.46646,537.32661 284.49852,541.22101 292.22711,543.94931 299.76252,544.22641 307.98543,542.08461 z M 7302.5004,539.80501 C 7307.4877,535.78601 7308.7646,532.99081 7308.2764,527.16081 7307.9231,522.94191 7307.2807,521.68291 7303.8467,518.47971 7298.6133,513.59801 7292.841,511.97621 7286.1651,513.51171 7269.6,517.32181 7268.3617,534.31311 7284.1051,541.77841 7289.8791,544.51631 7297.6945,543.67791 7302.5004,539.80501 z M 6293.2564,518.99401 C 6296.2545,514.47861 6289.88,509.77241 6284.5962,512.60021 6283.0061,513.45121 6282.5641,514.50471 6282.7967,516.88901 6283.3374,522.43101 6290.0742,523.78681 6293.2564,518.99401 z M 3721.3551,518.31771 C 3723.3871,516.74541 3722.8781,511.81191 3720.5556,510.56891 3717.3527,508.85481 3713.3097,509.77641 3711.943,512.53211 3709.2077,518.04741 3716.1719,522.32841 3721.3551,518.31771 z M 628.41676,492.84541 C 631.15346,485.70671 630.50776,482.07211 625.97506,479.10211 623.73456,477.63421 623.58216,477.71991 621.62916,481.54831 618.89136,486.91471 619.07786,489.22201 622.52816,492.67231 626.15296,496.29721 627.08296,496.32451 628.41676,492.84541 z M 5950.8391,488.62601 C 5955.4818,484.97401 5955.0137,475.21971 5950.0392,471.96031 5946.1137,469.38821 5937.8829,470.57121 5934.8045,474.15001 5931.5176,477.97131 5932.1361,484.93511 5936.0625,488.31241 5939.5614,491.32201 5947.2054,491.48421 5950.8391,488.62601 z M 2099.364,485.38061 C 2101.4017,483.68941 2102.7659,479.67731 2102.0597,477.45241 2100.6831,473.11501 2090.3745,470.93341 2087.3784,474.34541 2081.9601,480.51571 2086.6837,488.37791 2095.0098,487.04761 2096.6074,486.79241 2098.5668,486.04221 2099.364,485.38061 z M 6683.6051,467.84391 C 6692.1457,463.57741 6693.1763,449.09491 6685.4501,441.91671 6682.0081,438.71881 6674.6437,437.09751 6670.2086,438.56131 6661.289,441.50501 6656.8123,455.15801 6662.1137,463.24891 6666.0999,469.33271 6676.2715,471.50741 6683.6051,467.84391 z M 350.22579,462.53701 C 355.13911,460.15851 361.17439,453.87051 363.20226,449.01711 365.11751,444.43321 364.92806,437.90301 362.74011,433.08681 360.67496,428.54091 354.84064,423.00961 349.95994,420.97031 345.35632,419.04681 336.87675,419.28881 332.04928,421.48151 324.71684,424.81201 318.60509,434.13681 318.60509,441.99351 318.60509,448.40431 324.32628,457.19431 331.43198,461.70061 337.09955,465.29481 343.9033,465.59761 350.22579,462.53701 z M 679.60506,460.05801 C 680.98006,459.35181 683.39326,457.41881 684.96766,455.76241 L 687.83026,452.75091 683.59006,450.58771 C 681.25796,449.39801 677.04476,448.19081 674.22746,447.90521 669.63456,447.43951 668.58826,447.73261 664.10506,450.74061 661.35506,452.58571 659.10506,454.72631 659.10506,455.49741 659.10506,457.07751 665.16576,460.50451 669.94496,461.62691 673.37386,462.43221 675.72656,462.05011 679.60506,460.05801 z M 6134.7764,460.94041 C 6137.2807,458.67411 6137.2163,452.99291 6134.6708,451.63061 6129.9976,449.12951 6124.6051,451.44051 6124.6051,455.94431 6124.6051,461.58581 6130.7357,464.59721 6134.7764,460.94041 z M 3880.6051,453.66681 C 3880.6051,449.42381 3875.0717,447.20501 3870.5394,449.63061 3869.4302,450.22421 3868.6051,451.71721 3868.6051,453.13061 3868.6051,455.47651 3868.8946,455.59541 3874.6051,455.59541 3879.8644,455.59541 3880.6051,455.35731 3880.6051,453.66681 z M 822.77636,450.94041 C 826.00166,448.02161 824.93826,443.33621 820.53356,441.05841 816.40696,438.92451 814.84066,439.23921 813.13076,442.54571 811.01256,446.64201 811.22366,449.21481 813.82756,451.03871 816.71566,453.06161 820.47816,453.02031 822.77636,450.94041 z M 5847.9591,438.14321 C 5851.2396,435.10281 5851.5776,429.56791 5848.6609,426.65121 5845.7936,423.78391 5840.0766,423.00011 5836.0469,424.92171 5830.6312,427.50431 5830.3434,435.34031 5835.5184,439.31361 5838.3591,441.49461 5845.019,440.86801 5847.9591,438.14321 z M 4169.6918,437.31361 C 4174.8668,433.34031 4174.579,425.50431 4169.1633,422.92171 4165.1336,421.00011 4159.4166,421.78391 4156.5493,424.65121 4153.6326,427.56791 4153.9706,433.10281 4157.2511,436.14321 4160.1912,438.86801 4166.8511,439.49461 4169.6918,437.31361 z M 458.89277,426.51021 C 460.20275,425.91331 462.02392,424.15641 462.93982,422.60591 465.96477,417.48511 464.7045,412.73241 459.62511,410.10581 455.28678,407.86231 451.1901,408.23231 447.68182,411.18431 445.19329,413.27831 444.60509,414.53561 444.60509,417.76121 444.60509,425.19421 451.93288,429.68131 458.89277,426.51021 z M 6909.6272,423.07421 C 6912.9517,419.88911 6913.2883,417.81731 6911.1523,413.68661 6909.2052,409.92141 6904.7671,408.19411 6899.1893,409.03051 6889.614,410.46641 6886.454,417.59811 6892.6484,423.79261 6895.4577,426.60181 6896.1131,426.80091 6901.1705,426.38151 6905.4662,426.02531 6907.2924,425.31111 6909.6272,423.07421 z M 1095.4436,423.17891 C 1103.4932,419.01631 1106.8694,407.95411 1102.6277,399.63981 1096.8602,388.33451 1080.5785,386.70771 1072.2509,396.60461 1068.3415,401.25051 1067.0118,406.67171 1068.5347,411.75481 1071.3492,421.14861 1078.3702,426.11761 1087.4412,425.13541 1090.3761,424.81771 1093.9772,423.93721 1095.4436,423.17891 z M 3112.682,421.67231 C 3118.7548,415.59961 3115.5033,408.45251 3106.0209,407.03051 3100.4431,406.19411 3096.005,407.92141 3094.0579,411.68661 3091.9504,415.76211 3092.2545,417.89451 3095.3551,420.78361 3098.7649,423.96071 3099.9976,424.41731 3105.432,424.51651 3108.9403,424.58051 3110.312,424.04241 3112.682,421.67231 z M 510.53356,408.13241 C 515.57646,405.52461 516.08646,399.92291 511.68206,395.51851 504.89806,388.73461 493.48016,395.63651 497.12936,404.31531 499.32416,409.53511 504.80356,411.09551 510.53356,408.13241 z M 420.40756,403.95141 C 423.7116,403.06641 423.05538,399.09541 419.60509,399.09541 417.62119,399.09541 417.03977,399.66311 416.78867,401.84541 416.45375,404.75611 416.75294,404.93031 420.40756,403.95141 z M 5672.1137,385.73041 C 5677.001,383.51011 5682.1763,377.82421 5683.088,373.67311 5684.0416,369.33161 5682.0546,364.19731 5678.0654,360.69471 5669.1584,352.87431 5649.7171,356.45911 5644.3094,366.91901 5642.5977,370.22991 5642.4892,371.26501 5643.4999,374.63861 5644.8057,378.99711 5650.4013,384.29351 5655.7422,386.22631 5660.678,388.01251 5667.5484,387.80441 5672.1137,385.73041 z M 4348.7467,384.43481 C 4354.2641,382.78181 4360.3272,377.25521 4361.7187,372.61041 4362.7195,369.27021 4362.6079,368.22101 4360.9008,364.91901 4355.4931,354.45911 4336.0518,350.87431 4327.1448,358.69471 4320.667,364.38231 4320.2126,371.80091 4325.9423,378.32671 4331.6404,384.81641 4339.9997,387.05551 4348.7467,384.43481 z M 5805.278,375.43301 C 5806.526,374.26061 5808.0572,371.75561 5808.6807,369.86651 5810.883,363.19341 5804.7425,353.61231 5798.2551,353.59911 5797.2376,353.59711 5794.8751,355.12541 5793.0051,356.99541 5789.902,360.09851 5789.6079,360.90621 5789.6369,366.24541 5789.6701,372.35021 5790.4465,374.02211 5794.6051,376.94341 5797.6591,379.08871 5802.0477,378.46771 5805.278,375.43301 z M 5929.9702,372.52281 C 5933.2718,369.92581 5933.5828,364.57311 5930.6051,361.59541 5928.2241,359.21451 5926.472,359.09581 5922.6766,361.05841 5917.9116,363.52251 5917.2668,367.85941 5921.0574,371.94941 5924.0091,375.13431 5926.4506,375.29141 5929.9702,372.52281 z M 5869.6479,372.57251 C 5872.9701,370.79451 5873.9661,367.79531 5872.1531,365.02831 5870.0738,361.85491 5866.158,361.82191 5864.1016,364.96041 5861.9336,368.26921 5863.5985,372.56071 5867.4208,373.51651 5867.5945,373.55991 5868.5967,373.13511 5869.6479,372.57251 z M 4084.1528,369.94941 C 4087.9434,365.85941 4087.2986,361.52251 4082.5336,359.05841 4078.7382,357.09581 4076.9861,357.21451 4074.6051,359.59541 4071.6274,362.57311 4071.9384,367.92581 4075.24,370.52281 4078.7596,373.29141 4081.2011,373.13431 4084.1528,369.94941 z M 4139.0999,370.95901 C 4141.8467,369.90501 4142.903,365.69901 4141.1086,362.96041 4139.0522,359.82191 4135.1364,359.85491 4133.0571,363.02831 4131.2852,365.73251 4132.1914,368.67181 4135.3674,370.52221 4137.4946,371.76151 4137.1223,371.71791 4139.0999,370.95901 z M 388.94396,337.65671 C 397.3033,334.47841 398.17167,322.35021 390.38002,317.59961 385.7937,314.80331 381.68367,315.04931 377.72132,318.35721 375.09951,320.54601 374.31791,322.05031 373.95429,325.60721 373.01554,334.79021 380.55106,340.84761 388.94396,337.65671 z M 5747.6446,336.04781 C 5748.2524,335.31551 5748.6046,333.45161 5748.4274,331.90591 5748.174,329.69591 5747.5281,329.02881 5745.4046,328.78381 5741.5747,328.34181 5738.6051,330.21551 5738.6051,333.07391 5738.6051,337.58131 5744.7061,339.58851 5747.6446,336.04781 z M 4266.415,331.29921 C 4266.7822,328.25531 4263.9314,326.30761 4259.8056,326.78381 4257.4502,327.05561 4257.1051,327.53891 4257.1051,330.56591 4257.1051,337.24861 4265.6165,337.91901 4266.415,331.29921 z M 5631.8004,319.90831 C 5634.9894,316.85301 5635.2756,314.99771 5633.0484,311.81791 5631.1674,309.13241 5626.4964,308.84701 5624.0739,311.26941 5622.8847,312.45871 5622.5604,313.93251 5622.9541,316.35871 5624.0372,323.03291 5627.2101,324.30601 5631.8004,319.90831 z M 4380.531,319.18461 C 4382.6394,316.64421 4382.9772,311.11031 4381.1363,309.26941 4378.7138,306.84701 4374.0428,307.13241 4372.1618,309.81791 4369.976,312.93861 4370.2074,314.57091 4373.2922,317.79071 4376.2463,320.87411 4378.7317,321.35271 4380.531,319.18461 z M 1074.0456,313.46361 C 1076.1897,311.77701 1076.6267,310.78491 1076.1378,308.71361 1075.3231,305.26211 1072.0504,302.59541 1068.6292,302.59541 1064.9659,302.59541 1060.6051,306.12791 1060.6051,309.09541 1060.6051,312.05491 1064.9626,315.59541 1068.6051,315.59541 1070.1068,315.59541 1072.555,314.63611 1074.0456,313.46361 z M 609.32206,299.13801 C 615.79196,291.61641 606.33596,282.75621 596.30976,286.94541 586.07846,291.22041 591.07226,303.42361 602.57206,302.24861 605.81266,301.91751 607.66586,301.06351 609.32206,299.13801 z M 5728.4051,300.39541 C 5730.5248,298.27571 5729.805,293.89781 5726.9702,291.66801 5723.5486,288.97661 5723.0084,289.03831 5719.5282,292.51851 5716.2334,295.81321 5715.8874,297.73481 5718.1765,300.02401 5720.0287,301.87621 5726.6827,302.11781 5728.4051,300.39541 z M 5822.3551,298.80331 C 5824.2998,296.32951 5823.8468,291.48161 5821.4308,288.90991 5818.463,285.75081 5814.3072,285.88741 5811.6777,289.23031 5808.2042,293.64611 5809.1431,298.05571 5814.0048,300.15921 5817.4813,301.66351 5820.4909,301.17481 5822.3551,298.80331 z M 1052.0337,299.02401 C 1055.2191,295.83851 1053.1089,290.59541 1048.6413,290.59541 1043.3888,290.59541 1040.9617,295.12201 1044.2601,298.76671 1046.2912,301.01101 1049.9263,301.13131 1052.0337,299.02401 z M 4287.0337,298.02401 C 4289.3228,295.73481 4288.9768,293.81321 4285.682,290.51851 4282.2018,287.03831 4281.6616,286.97661 4278.24,289.66801 4275.4052,291.89781 4274.6854,296.27571 4276.8051,298.39541 4278.5275,300.11781 4285.1815,299.87621 4287.0337,298.02401 z M 4195.4027,292.54071 C 4195.8126,289.02121 4192.1609,284.59541 4188.847,284.59541 4185.0303,284.59541 4181.6051,288.24671 4181.6051,292.31541 L 4181.6051,295.68681 4188.3551,295.39111 C 4194.7589,295.11061 4195.1204,294.96441 4195.4027,292.54071 z M 1638.7156,292.34031 C 1640.7014,291.10561 1644.2787,288.40041 1646.665,286.32881 L 1651.0039,282.56221 1645.5598,277.04951 C 1642.5655,274.01751 1638.2385,270.62821 1635.9444,269.51761 1632.1487,267.68011 1631.473,267.62791 1628.4391,268.93691 1626.6054,269.72811 1622.4051,273.14571 1619.1051,276.53141 L 1613.1051,282.68741 1615.6051,284.65781 C 1622.5824,290.15721 1630.117,294.59491 1632.4691,294.59031 1633.9189,294.58751 1636.7298,293.57501 1638.7156,292.34031 z M 1370.2054,278.83011 C 1371.8381,277.73991 1373.6051,274.01381 1373.6051,271.66111 1373.6051,268.81541 1370.1305,265.59541 1367.0596,265.59541 1360.9529,265.59541 1357.1102,274.73451 1361.8276,278.03871 1364.166,279.67661 1368.3463,280.07141 1370.2054,278.83011 z M 1293.0183,273.62671 C 1299.0396,267.60541 1290.3151,257.46921 1282.6445,261.57431 1278.2986,263.90021 1278.4752,273.76191 1282.896,275.61721 1285.9174,276.88521 1290.7002,275.94471 1293.0183,273.62671 z M 1899.1534,270.34541 C 1901.9825,267.73241 1902.8419,266.01741 1903.5376,261.59541 1905.0354,252.07601 1900.4054,245.59541 1892.1066,245.59541 1886.4826,245.59541 1883.1233,248.92071 1881.523,256.07191 1880.0069,262.84641 1880.8776,266.17311 1885.2446,270.29181 1889.9995,274.77621 1894.3379,274.79291 1899.1534,270.34541 z M 511.68206,268.67231 C 514.89856,265.45581 515.19436,263.98291 513.41036,260.06751 512.02966,257.03711 507.86536,254.59541 504.07786,254.59541 500.13386,254.59541 495.60506,259.59331 495.60506,263.94591 495.60506,271.41141 505.91266,274.44171 511.68206,268.67231 z M 1595.6051,256.67221 C 1599.0418,254.23961 1600.5729,250.88361 1600.5904,245.74541 1600.6191,237.25701 1591.153,231.58421 1582.1524,234.69611 1573.1123,237.82161 1571.123,251.67051 1579.0032,256.61931 1584.1287,259.83811 1591.1009,259.86031 1595.6051,256.67221 z M 7367.6051,254.67221 C 7371.2702,252.07801 7372.7438,248.66311 7372.271,243.85981 7371.4384,235.40251 7365.4276,230.71961 7357.9906,232.73451 7352.6127,234.19141 7349.8839,237.04781 7348.7382,242.41941 7348.0064,245.85041 7348.0924,247.63701 7349.0811,249.54891 7352.9478,257.02641 7361.0954,259.27981 7367.6051,254.67221 z M 2651.6051,252.69571 C 2656.1296,249.42111 2657.6128,245.70731 2656.4885,240.46831 2655.3206,235.02591 2652.6067,232.19411 2647.1389,230.71221 2639.0985,228.53301 2632.0145,235.36331 2632.9347,244.40771 2633.8839,253.73731 2643.9761,258.21731 2651.6051,252.69571 z M 1923.4005,245.26511 C 1925.5181,240.96341 1922.5594,236.64031 1917.4775,236.61071 1914.2295,236.59181 1912.501,238.55341 1912.3921,242.38201 1912.2899,245.97831 1913.17,247.49731 1915.9574,248.53541 1918.9527,249.65091 1921.8732,248.36781 1923.4005,245.26511 z M 7400.6251,248.08511 C 7404.3172,246.17581 7405.6051,243.76721 7405.6051,238.77191 7405.6051,233.03801 7402.92,230.14091 7397.6057,230.14091 7394.2378,230.14091 7392.9127,230.69911 7390.999,232.92391 7387.0015,237.57131 7388.364,245.23401 7393.7152,248.19991 7396.7805,249.89891 7397.1288,249.89311 7400.6251,248.08511 z M 1365.6051,248.28971 C 1365.6051,248.12151 1364.4801,246.45911 1363.1051,244.59541 1358.7703,238.71991 1359.5634,235.33451 1367.1051,227.52271 1372.233,222.21111 1373.6051,220.14151 1373.6051,217.71831 1373.6051,211.42601 1361.7898,208.92891 1355.3301,213.85601 1351.3114,216.92121 1344.6051,229.11501 1344.6051,233.35681 1344.6051,238.85581 1349.1535,242.76981 1360.0538,246.65081 1366.1439,248.81911 1365.6051,248.66011 1365.6051,248.28971 z M 2147.6708,246.56021 C 2149.8631,245.38701 2150.3066,240.69691 2148.4051,238.79541 2146.7276,237.11791 2142.097,237.29781 2140.6025,239.09851 2138.9388,241.10321 2139.0144,245.60711 2140.7301,246.69381 2142.5838,247.86801 2145.3259,247.81521 2147.6708,246.56021 z M 2611.4601,246.17041 C 2616.8308,243.39311 2618.2364,235.60341 2614.2112,230.92391 2612.2975,228.69911 2610.9724,228.14091 2607.6045,228.14091 2602.2902,228.14091 2599.6051,231.03801 2599.6051,236.77191 2599.6051,241.67941 2600.8686,244.13091 2604.3802,246.03661 2607.8082,247.89691 2608.1103,247.90261 2611.4601,246.17041 z M 6956.384,226.06611 C 6961.0231,220.67281 6957.604,210.64521 6950.6519,209.25481 6946.4865,208.42171 6940.9858,210.29711 6938.5531,213.37981 6935.5149,217.22971 6936.3139,224.08801 6940.1889,227.42111 6942.5817,229.47931 6943.7346,229.74941 6948.4567,229.35781 6952.9339,228.98651 6954.3931,228.38061 6956.384,226.06611 z M 3065.1477,225.31241 C 3068.895,222.08911 3069.645,215.16601 3066.6571,211.37981 3064.2244,208.29711 3058.7237,206.42171 3054.5583,207.25481 3045.7935,209.00771 3043.8337,223.33131 3051.9134,226.58581 3056.2188,228.32001 3062.3353,227.73151 3065.1477,225.31241 z M 1404.2818,224.34541 C 1405.3957,223.10791 1406.5865,221.30401 1406.928,220.33671 1408.4736,215.95921 1402.8166,209.82351 1398.2838,210.96121 1393.3078,212.21011 1391.9596,221.15591 1396.24,224.52281 1399.6298,227.18931 1401.7643,227.14221 1404.2818,224.34541 z M 561.60506,223.59541 C 565.73836,219.46221 563.17376,213.59541 557.23366,213.59541 553.14916,213.59541 551.60506,215.13941 551.60506,219.22401 551.60506,225.16401 557.47186,227.72861 561.60506,223.59541 z M 1523.4165,220.55641 C 1526.1734,217.98801 1526.4213,211.64101 1523.8551,209.32831 1520.4921,206.29761 1516.9487,206.16091 1514.1554,208.95421 1510.755,212.35461 1510.8827,216.02691 1514.5282,219.67231 1517.9696,223.11381 1520.4109,223.35661 1523.4165,220.55641 z M 6369.5665,217.11541 C 6373.7448,214.95471 6376.6051,210.82801 6376.6051,206.96051 L 6376.6051,203.59541 6364.6051,203.59541 C 6351.179,203.59541 6350.9681,203.74161 6353.9839,210.95961 6356.8052,217.71191 6363.3858,220.31151 6369.5665,217.11541 z M 3647.4616,214.06271 C 3649.1171,212.66971 3651.0026,209.92101 3651.6516,207.95441 3656.6871,192.69681 3637.1353,182.40031 3630.5741,196.85451 3626.9593,204.81791 3628.4038,210.67241 3634.9718,214.67731 3639.3402,217.34111 3643.828,217.12021 3647.4616,214.06271 z M 961.04836,212.37291 C 963.42976,208.97301 963.02436,204.91621 960.11236,203.00821 955.70116,200.11791 951.10756,202.75161 949.16016,209.28771 947.80596,213.83281 958.14626,216.51621 961.04836,212.37291 z M 7283.9322,207.65511 C 7289.6516,201.32441 7289.7665,195.84071 7284.3054,189.84491 7282.3661,187.71581 7282.1166,187.68081 7279.6803,189.19601 7275.6553,191.69931 7273.6051,194.56381 7273.6051,197.68401 7273.6051,200.56541 7278.4353,211.59541 7279.6971,211.59541 7280.0685,211.59541 7281.9743,209.82231 7283.9322,207.65511 z M 7365.1506,208.14091 C 7367.9808,205.31061 7368.3576,200.95121 7366.1421,196.66691 7363.5022,191.56201 7357.9329,191.11371 7353.4049,195.64181 7350.7727,198.27401 7350.4386,199.19181 7350.948,202.39181 7352.1312,209.82441 7360.2006,213.09081 7365.1506,208.14091 z M 2728.8968,204.07331 C 2733.1142,195.47401 2732.3032,191.40851 2725.5299,187.19601 2723.0936,185.68081 2722.8441,185.71581 2720.9048,187.84491 2715.4437,193.84071 2715.5586,199.32441 2721.278,205.65511 2723.2359,207.82231 2725.1417,209.59541 2725.5131,209.59541 2725.8846,209.59541 2727.4072,207.11041 2728.8968,204.07331 z M 2651.0831,206.34541 C 2652.628,205.00311 2653.9104,202.60141 2654.2622,200.39181 2654.7716,197.19181 2654.4375,196.27401 2651.8053,193.64181 2647.2773,189.11371 2641.708,189.56201 2639.0681,194.66691 2634.2334,204.01631 2643.4516,212.97631 2651.0831,206.34541 z M 6823.2085,200.55611 C 6830.949,197.61311 6830.252,187.05081 6822.1836,185.02581 6818.9327,184.20981 6812.8501,186.26911 6811.5974,188.60971 6810.2231,191.17771 6810.3558,195.90071 6811.8551,197.78001 6814.7256,201.37801 6818.5726,202.31871 6823.2085,200.55611 z M 3190.5336,198.13241 C 3193.6103,196.54141 3194.6051,194.78591 3194.6051,190.94791 3194.6051,187.08011 3192.9331,184.85881 3189.0597,183.58041 3182.4907,181.41241 3176.5784,184.87001 3176.6369,190.84541 3176.7051,197.81621 3183.8748,201.57581 3190.5336,198.13241 z M 6746.2034,194.50311 C 6749.376,191.52261 6749.2336,189.07011 6745.682,185.51851 6741.6276,181.46401 6736.8914,181.52721 6732.1399,185.69901 6730.1958,187.40601 6728.6201,189.31851 6728.6384,189.94901 6728.6819,191.44911 6731.6063,194.91201 6734.1175,196.43731 6736.9682,198.16871 6743.3966,197.14001 6746.2034,194.50311 z M 481.55946,195.15041 C 483.14396,193.24121 482.53206,189.56731 480.40786,188.23591 477.86316,186.64101 473.18244,188.59481 472.77833,191.42061 472.33573,194.51551 474.27577,196.59541 477.60506,196.59541 479.12036,196.59541 480.89986,195.94521 481.55946,195.15041 z M 3270.8794,194.44861 C 3273.4351,193.08081 3276.5253,189.55251 3276.5718,187.94901 3276.5901,187.31851 3275.0144,185.40601 3273.0703,183.69901 3268.3188,179.52721 3263.5826,179.46401 3259.5282,183.51851 3256.0228,187.02391 3255.8297,189.54131 3258.8551,192.29381 3262.6065,195.70681 3267.0429,196.50181 3270.8794,194.44861 z M 7720.0162,191.51871 C 7721.4401,189.82651 7722.6051,187.38411 7722.6051,186.09131 7722.6051,183.34031 7718.31,179.58081 7715.2202,179.62721 7708.686,179.72551 7705.6263,189.39561 7710.9497,193.12421 7714.2138,195.41051 7717.1841,194.88451 7720.0162,191.51871 z M 2294.2605,191.12421 C 2299.5839,187.39561 2296.5242,177.72551 2289.99,177.62721 2286.9002,177.58081 2282.6051,181.34031 2282.6051,184.09131 2282.6051,187.24521 2287.2395,192.59541 2289.9715,192.59541 2291.1752,192.59541 2293.1053,191.93341 2294.2605,191.12421 z M 7523.2448,188.13521 C 7527.9693,184.82611 7528.6297,177.62001 7524.5797,173.57001 7522.2376,171.22791 7515.4504,170.87191 7513.6855,172.99851 7510.1477,177.26131 7510.5808,186.31131 7514.4301,188.55731 7516.8896,189.99231 7520.8652,189.80191 7523.2448,188.13521 z M 2490.5908,186.60311 C 2493.2957,185.15541 2494.8062,179.78331 2493.6458,175.73741 2492.238,170.82851 2490.7998,169.59541 2486.4827,169.59541 2479.9569,169.59541 2476.0926,175.52961 2478.6296,181.65461 2480.7948,186.88171 2486.0261,189.04601 2490.5908,186.60311 z M 2233.3389,180.91741 C 2237.9181,178.74451 2241.1005,172.09531 2240.1232,166.74301 2238.6284,158.55681 2233.6639,155.13381 2224.2714,155.81321 2218.9071,156.20121 2217.9535,156.61341 2215.4318,159.63401 2210.3004,165.78051 2212.0671,176.46741 2218.9036,180.63591 2222.8368,183.03411 2228.64,183.14721 2233.3389,180.91741 z M 5718.4882,176.96471 C 5721.324,174.97851 5723.6064,169.80621 5723.6014,165.37751 5723.5923,157.42091 5715.7486,151.33701 5708.3554,153.55211 5703.1935,155.09861 5700.6138,159.39231 5700.6088,166.44541 5700.6055,171.19881 5700.9843,172.17461 5704.0051,175.19541 5706.8362,178.02651 5708.1376,178.59541 5711.7826,178.59541 5714.2112,178.59541 5717.1966,177.86941 5718.4882,176.96471 z M 4301.2051,173.19541 C 4304.2259,170.17461 4304.6047,169.19881 4304.6014,164.44541 4304.5964,157.39231 4302.0167,153.09861 4296.8548,151.55211 4286.6641,148.49891 4278.5374,159.31751 4282.9995,169.99681 4284.8868,174.51381 4288.1765,176.59541 4293.4276,176.59541 4297.0726,176.59541 4298.374,176.02651 4301.2051,173.19541 z M 7075.0567,173.18011 C 7079.2863,171.41281 7080.6051,169.00791 7080.6051,163.06241 7080.6051,159.15271 7080.1119,157.93711 7077.5573,155.55071 7069.4397,147.96781 7055.6051,153.07421 7055.6051,163.65331 7055.6051,171.91341 7065.9556,176.98271 7075.0567,173.18011 z M 2940.5402,171.95841 C 2945.4341,170.97961 2949.6051,166.23801 2949.6051,161.65331 2949.6051,151.07421 2935.7705,145.96781 2927.6529,153.55071 2925.0983,155.93711 2924.6051,157.15271 2924.6051,161.06241 2924.6051,166.91971 2925.9103,169.38741 2929.9338,171.13761 2933.5111,172.69371 2935.9283,172.88081 2940.5402,171.95841 z M 4376.5325,147.96051 C 4380.2841,143.19111 4378.2377,138.59541 4372.3624,138.59541 4366.2607,138.59541 4363.6197,144.08721 4367.6441,148.40681 4370.4055,151.37091 4373.9916,151.19081 4376.5325,147.96051 z M 5637.5661,146.40681 C 5641.5415,142.13981 5638.9734,136.59541 5633.0215,136.59541 5626.9809,136.59541 5624.8778,141.12971 5628.6777,145.96051 5631.2186,149.19081 5634.8047,149.37091 5637.5661,146.40681 z M 7744.6051,137.56021 C 7744.6051,129.77231 7744.5421,129.55881 7742.5572,130.62101 7740.0144,131.98191 7738.3042,136.26021 7739.0751,139.33181 7739.609,141.45921 7742.9306,145.59541 7744.1051,145.59541 7744.3801,145.59541 7744.6051,141.97961 7744.6051,137.56021 z M 3900.057,141.71971 C 3916.3025,134.53351 3923.3389,115.65351 3915.6173,99.96861 3910.2124,88.989807 3900.348,83.160607 3887.1051,83.120007 3880.5448,83.099807 3878.1153,83.561807 3873.6051,85.687007 3863.2008,90.589507 3856.1034,100.38181 3854.9878,111.37331 3853.6215,124.83561 3864.2599,139.24511 3878.5557,143.29541 3884.412,144.95461 3894.3984,144.22281 3900.057,141.71971 z M 2262.0603,142.97421 C 2264.6372,141.98541 2266.818,136.84121 2266.0816,133.48851 2265.1196,129.10841 2261.1135,127.06531 2254.3096,127.48471 2251.573,127.65341 2247.6051,132.17621 2247.6051,135.12691 2247.6051,139.06191 2252.6058,143.59541 2256.9464,143.59541 2258.8687,143.59541 2261.17,143.31591 2262.0603,142.97421 z M 4933.4027,140.34541 C 4934.4848,138.07651 4934.4847,137.11431 4933.4023,134.84541 4930.792,129.37391 4922.6051,131.52251 4922.6051,137.67901 4922.6051,143.87011 4930.7611,145.88421 4933.4027,140.34541 z M 4991.944,140.65671 C 4999.3224,137.85141 5000.7726,130.56291 4995.0843,124.87461 4992.0657,121.85601 4991.1103,121.44441 4988.3865,121.98911 4978.7713,123.91221 4975.7547,133.17771 4982.8107,139.11501 4985.9817,141.78321 4988.0588,142.13381 4991.944,140.65671 z M 6496.2787,137.26421 C 6503.1692,133.70101 6504.8372,120.57841 6499.1535,114.64591 6495.2588,110.58081 6491.4833,109.23661 6486.1893,110.03051 6476.1029,111.54311 6470.8857,121.23471 6474.9671,130.87751 6476.7013,134.97501 6479.4923,137.44851 6484.2119,139.07111 6488.1428,140.42241 6490.9982,139.99481 6496.2787,137.26421 z M 5022.3995,137.11501 C 5029.4555,131.17771 5026.4389,121.91221 5016.8237,119.98911 5014.0999,119.44441 5013.1445,119.85601 5010.1259,122.87461 5004.6131,128.38741 5005.4543,134.55021 5012.1998,138.06801 5016.3189,140.21611 5019.0132,139.96441 5022.3995,137.11501 z M 3525.6051,134.77671 C 3531.0432,130.81021 3533.2155,121.61031 3530.1251,115.63401 3527.9639,111.45481 3524.0686,108.78751 3519.0209,108.03051 3510.297,106.72231 3503.5603,112.09071 3502.8268,120.93531 3502.0833,129.90171 3505.8096,135.17281 3514.5986,137.58711 3517.6299,138.41981 3522.2158,137.24891 3525.6051,134.77671 z M 4865.1506,133.14091 C 4871.2994,126.99201 4864.8735,119.40161 4855.3337,121.54511 4850.6032,122.60791 4848.6051,124.73681 4848.6051,128.71401 4848.6051,135.16321 4860.0626,138.22881 4865.1506,133.14091 z M 6933.0092,129.32901 C 6938.8558,125.98411 6939.4353,124.48391 6936.8979,119.26111 6934.3893,114.09771 6927.8364,110.25401 6922.4366,110.77861 6919.7674,111.03791 6918.6422,111.96031 6916.2367,115.86111 6913.5434,120.22861 6913.3929,120.94381 6914.4349,124.42181 6916.4662,131.20151 6925.544,133.59981 6933.0092,129.32901 z M 3086.0891,127.90171 C 3088.7377,126.63861 3089.9297,125.24401 3090.7766,122.41731 3091.817,118.94481 3091.6657,118.22681 3088.9735,113.86111 3086.568,109.96031 3085.4428,109.03791 3082.7736,108.77861 3077.3738,108.25401 3070.8209,112.09771 3068.3123,117.26111 3065.7749,122.48391 3066.3544,123.98411 3072.201,127.32901 3076.8834,130.00781 3081.2913,130.18961 3086.0891,127.90171 z M 4692.8551,126.48161 C 4695.3692,123.45351 4695.0661,118.96551 4692.1506,116.05001 4688.2996,112.19901 4683.5363,112.89391 4681.0681,117.66691 4678.9578,121.74791 4679.2558,124.33701 4682.1714,127.25261 4684.2414,129.32261 4685.3533,129.70001 4687.9214,129.20411 4689.6724,128.86601 4691.8926,127.64091 4692.8551,126.48161 z M 5323.1506,125.14091 C 5329.2181,119.07331 5322.0673,108.58051 5314.6876,112.72261 5309.4912,115.63921 5309.4521,123.69381 5314.6217,126.30941 5318.2961,128.16851 5320.4129,127.87851 5323.1506,125.14091 z M 6895.8551,123.79941 C 6900.2793,119.97191 6895.6677,112.59541 6888.8506,112.59541 6882.6749,112.59541 6881.0652,115.71691 6884.1575,121.69671 6886.6166,126.45211 6891.727,127.37071 6895.8551,123.79941 z M 3120.7032,120.20211 C 3124.3508,114.22031 3122.7119,110.59541 3116.3596,110.59541 3109.5285,110.59541 3104.955,117.93551 3109.3551,121.83721 3113.2712,125.30961 3118.0046,124.62761 3120.7032,120.20211 z M 1987.0484,115.37291 C 1989.1965,112.30611 1988.9958,108.36191 1986.5325,105.23031 1982.3472,99.90951 1974.6051,103.06751 1974.6051,110.09541 1974.6051,114.66871 1977.5097,117.59541 1982.0484,117.59541 1984.473,117.59541 1985.9522,116.93791 1987.0484,115.37291 z M 6865.5749,111.31621 C 6871.2284,108.45551 6871.9384,101.83781 6867.1099,97.00931 6865.2899,95.18931 6863.614,94.59541 6860.2984,94.59541 6849.6172,94.59541 6843.9365,105.51161 6851.7645,110.99451 6854.4905,112.90381 6862.0875,113.08081 6865.5749,111.31621 z M 3153.4457,108.99451 C 3161.2737,103.51161 3155.593,92.59541 3144.9118,92.59541 3134.8631,92.59541 3130.9703,104.93161 3139.6353,109.31621 3143.1227,111.08081 3150.7197,110.90381 3153.4457,108.99451 z M 6920.6299,107.03031 C 6922.9565,100.91071 6920.3826,96.59541 6914.4056,96.59541 6908.1434,96.59541 6907.3571,104.77211 6913.309,107.99931 6917.4078,110.22171 6919.5229,109.94171 6920.6299,107.03031 z M 5212.6051,106.59541 C 5216.0245,103.17601 5214.943,99.08301 5209.8551,96.18851 5208.9099,95.65081 5208.6051,97.07661 5208.6051,102.03641 5208.6051,109.00281 5209.3494,109.85111 5212.6051,106.59541 z M 3091.6977,106.04751 C 3097.8346,102.87401 3097.1889,94.59541 3090.8046,94.59541 3084.8276,94.59541 3082.2537,98.91071 3084.5803,105.03031 3085.7019,107.98011 3087.4714,108.23301 3091.6977,106.04751 z M 4805.0484,104.37291 C 4807.0081,101.57501 4807.056,97.21451 4805.1443,95.62801 4804.3409,94.96121 4801.9784,94.18821 4799.8943,93.91031 4792.5978,92.93731 4787.873,99.86331 4792.6051,104.59541 4795.5258,107.51611 4802.9397,107.38361 4805.0484,104.37291 z M 4274.9649,100.21841 C 4284.1188,96.39371 4281.2962,79.595407 4271.4997,79.595407 4264.4737,79.595407 4259.7136,85.188007 4261.1295,91.779407 4262.2135,96.82631 4263.4653,98.62891 4266.9338,100.13761 4270.9281,101.87511 4270.9982,101.87581 4274.9649,100.21841 z M 4955.9702,99.52281 C 4958.0026,97.92421 4958.6051,96.56881 4958.6051,93.59541 4958.6051,90.622007 4958.0026,89.266607 4955.9702,87.668007 4952.5516,84.978907 4950.3487,85.051707 4946.9609,87.965807 4944.9078,89.731807 4944.2051,91.249107 4944.2051,93.91611 4944.2051,100.85901 4950.4738,103.84631 4955.9702,99.52281 z M 5738.0567,98.18011 C 5741.7298,96.64541 5742.9806,94.90101 5744.0807,89.779407 5745.4966,83.188007 5740.7365,77.595407 5733.7105,77.595407 5724.0765,77.595407 5721.0889,94.28491 5730.0262,98.17651 5733.9269,99.87501 5734.0002,99.87501 5738.0567,98.18011 z M 4926.8872,97.25031 C 4931.2118,95.44261 4932.7821,93.33401 4932.9,89.176507 4933.0914,82.423407 4928.7559,78.109707 4921.9706,78.302107 4912.2826,78.576707 4909.1988,93.33281 4918.0262,97.17651 4921.9488,98.88451 4922.9577,98.89291 4926.8872,97.25031 z M 5337.0708,97.17421 C 5340.5943,95.70201 5343.6051,91.281007 5343.6051,87.579307 5343.6051,79.896207 5331.659,75.450607 5326.0596,81.050007 5321.2903,85.819307 5323.7576,96.71071 5329.875,97.89231 5331.1016,98.12921 5332.4571,98.38431 5332.8872,98.45921 5333.3174,98.53411 5335.2,97.95591 5337.0708,97.17421 z M 4679.3551,92.96521 C 4682.5919,89.395607 4682.4889,82.388307 4679.1506,79.050007 4673.5512,73.450607 4661.6051,77.896207 4661.6051,85.579307 4661.6051,94.64491 4673.3866,99.54731 4679.3551,92.96521 z M 4410.8071,90.854907 C 4416.3059,85.356107 4415.622,74.311707 4409.4616,69.128107 4405.9748,66.194207 4401.9074,65.883607 4397.0648,68.181607 4387.8315,72.563007 4386.5838,87.460307 4395.0064,92.75781 4399.6559,95.68221 4406.8457,94.81631 4410.8071,90.854907 z M 5609.7424,91.024407 C 5618.5788,86.454907 5617.5629,70.650407 5608.1454,66.181607 5598.283,61.501607 5589.508,69.170007 5590.8726,81.276307 5591.9096,90.476607 5601.3604,95.35891 5609.7424,91.024407 z M 6493.6051,81.595407 C 6495.2836,81.057907 6493.312,80.785107 6487.6051,80.765407 6482.0039,80.746007 6479.7872,81.029107 6481.1051,81.595407 6483.5888,82.662707 6490.2725,82.662707 6493.6051,81.595407 z M 3526.3792,78.462707 C 3531.4061,76.029207 3536.2576,69.964407 3537.2013,64.934207 3538.59,57.532207 3531.5642,47.387207 3523.1192,44.600107 3514.5723,41.779307 3503.66,45.745207 3500.2614,52.907307 3496.8988,59.993507 3498.8768,70.916207 3504.4325,75.940507 3509.6655,80.673007 3519.4827,81.801307 3526.3792,78.462707 z M 5240.9702,78.522807 C 5245.9283,74.622807 5243.5591,66.595407 5237.4501,66.595407 5231.2085,66.595407 5228.5376,73.618807 5233.0596,78.140907 5236.0543,81.135607 5237.5565,81.208107 5240.9702,78.522807 z M 4772.1506,76.140907 C 4773.5006,74.790907 4774.6051,72.540907 4774.6051,71.140907 4774.6051,67.826907 4771.3115,64.595407 4767.9338,64.595407 4761.6469,64.595407 4759.1846,72.546307 4764.24,76.522807 4767.6537,79.208107 4769.1559,79.135607 4772.1506,76.140907 z M 6868.4051,74.395407 C 6870.1436,72.657007 6869.8921,67.919507 6868.0233,67.202407 6867.1533,66.868607 6865.1369,66.595407 6863.5424,66.595407 6861.3138,66.595407 6860.5035,67.152207 6860.0391,69.002307 6859.144,72.568607 6861.1645,75.595407 6864.4403,75.595407 6865.9609,75.595407 6867.7451,75.055407 6868.4051,74.395407 z M 3144.6549,71.502307 C 3145.2711,70.351007 3145.5033,68.326007 3145.1711,67.002307 3144.7067,65.152207 3143.8964,64.595407 3141.6678,64.595407 3140.0733,64.595407 3138.0569,64.868607 3137.1869,65.202407 3135.3181,65.919507 3135.0666,70.657007 3136.8051,72.395407 3138.7819,74.372207 3143.4002,73.846707 3144.6549,71.502307 z M 5368.6067,71.093707 C 5370.6568,68.911507 5370.8387,68.117307 5370.031,64.876507 5369.4288,62.459907 5368.1597,60.632307 5366.4009,59.648707 5363.9058,58.253407 5363.4806,58.297107 5360.9009,60.214807 5357.5461,62.708707 5356.7235,67.601007 5359.0595,71.166207 5361.1937,74.423407 5365.5094,74.390607 5368.6067,71.093707 z M 4646.0484,69.372907 C 4648.877,65.334507 4648.1123,64.595407 4641.1051,64.595407 4633.9625,64.595407 4633.177,65.446307 4636.7794,69.281007 4639.5967,72.279807 4643.9819,72.323307 4646.0484,69.372907 z M 6825.5542,61.932907 C 6828.6042,58.055507 6828.9993,55.228507 6827.0619,51.145607 6824.7638,46.302607 6822.3409,45.067207 6819.1901,47.131707 6813.8664,50.619907 6814.15,59.061907 6819.722,62.964707 6822.7863,65.111007 6823.0977,65.055907 6825.5542,61.932907 z M 3185.4882,60.964707 C 3191.0602,57.061907 3191.3438,48.619907 3186.0201,45.131707 3182.8693,43.067207 3180.4464,44.302607 3178.1483,49.145607 3176.2109,53.228507 3176.606,56.055507 3179.656,59.932907 3182.1125,63.055907 3182.4239,63.111007 3185.4882,60.964707 z M 5245.1506,46.140907 C 5249.267,42.024407 5247.8488,37.370207 5241.9671,35.693707 5237.9337,34.544007 5234.4653,36.208307 5233.1601,39.919407 5232.012,43.184107 5233.1111,45.483307 5236.7033,47.330707 5240.2808,49.170607 5242.4225,48.868907 5245.1506,46.140907 z M 4337.5247,34.845407 C 4338.7024,33.882907 4339.9234,31.486607 4340.238,29.520307 4340.698,26.645307 4340.3212,25.376907 4338.3137,23.043007 4336.2936,20.694607 4335.0137,20.140907 4331.6051,20.140907 4323.9898,20.140907 4320.0265,28.047507 4324.6777,33.960607 4326.3448,36.080007 4327.5946,36.595407 4331.0669,36.595407 4333.6956,36.595407 4336.2208,35.911107 4337.5247,34.845407 z M 5680.5325,31.960607 C 5683.2745,28.474707 5683.1543,24.345407 5680.2112,20.923907 5676.7494,16.899307 5670.412,16.956007 5666.8965,21.043007 5664.889,23.376907 5664.5122,24.645307 5664.9722,27.520307 5665.7317,32.266707 5668.7503,34.595407 5674.1433,34.595407 5677.6156,34.595407 5678.8654,34.080007 5680.5325,31.960607 z M 2106.6051,1795.0222 C 2106.6051,1793.8591 2180.7237,1432.017 2181.4021,1429.8687 2182.0285,1427.8848 2196.7113,1498.4347 2249.1401,1755.3454 L 2257.3541,1795.5954 2181.9796,1795.5954 C 2140.5236,1795.5954 2106.6051,1795.3375 2106.6051,1795.0222 z M 0.6050905,844.15441 0.6050905,753.59541 3.1065405,753.59541 C 4.4823405,753.59541 20.56984,748.90701 38.85654,743.17671 57.14325,737.44651 98.65509,724.43221 131.10509,714.25611 622.92726,560.02411 1164.7076,451.14411 1893.1051,360.15221 2125.2726,331.14961 2198.3313,323.92181 2636.6051,286.59621 2757.2739,276.31951 2810.9102,272.36411 2901.1051,267.09081 2955.4163,263.91551 3030.2899,259.18451 3067.2925,256.59011 3087.6034,255.16611 3124.7087,255.30621 3122.1375,256.79731 3116.8879,259.84161 3105.4545,261.70051 3086.1051,262.65541 3075.1051,263.19821 3053.5051,264.97241 3038.1051,266.59801 3003.1345,270.28941 2973.7895,273.04871 2894.6051,280.09081 2745.644,293.33861 2637.627,304.21591 2352.6051,334.67041 2048.3208,367.18311 1699.5966,425.48931 1384.1051,496.60251 970.30726,589.87431 529.06446,722.69541 192.10509,855.41341 101.09926,891.25781 63.33597,906.58725 34.20618,919.51012 16.66178,927.29335 1.9242805,933.89815 1.4561805,934.18745 0.9880805,934.47675 0.6050905,893.96191 0.6050905,844.15441 z"
     id="path2987"
     inkscape:connector-curvature="0" />
</svg>
