<?xml version="1.0" encoding="UTF-8" standalone="no"?>
<!-- Created with Inkscape (http://www.inkscape.org/) -->

<svg
   xmlns:dc="http://purl.org/dc/elements/1.1/"
   xmlns:cc="http://creativecommons.org/ns#"
   xmlns:rdf="http://www.w3.org/1999/02/22-rdf-syntax-ns#"
   xmlns:svg="http://www.w3.org/2000/svg"
   xmlns="http://www.w3.org/2000/svg"
   xmlns:sodipodi="http://sodipodi.sourceforge.net/DTD/sodipodi-0.dtd"
   xmlns:inkscape="http://www.inkscape.org/namespaces/inkscape"
   id="svg2"
   version="1.1"
   inkscape:version="0.48.4 r9939"
   width="765"
   height="990"
   xml:space="preserve"
   sodipodi:docname="magnetar-side-art.svg"><metadata
     id="metadata8"><rdf:RDF><cc:Work
         rdf:about=""><dc:format>image/svg+xml</dc:format><dc:type
           rdf:resource="http://purl.org/dc/dcmitype/StillImage" /><dc:title></dc:title><dc:description>font for +/- is amcap eternal.
shape of cabinet is a mad planets.
the stylized arrows are from mad planets.</dc:description></cc:Work></rdf:RDF></metadata><defs
     id="defs6" /><sodipodi:namedview
     pagecolor="#ffffff"
     bordercolor="#666666"
     borderopacity="1"
     objecttolerance="10"
     gridtolerance="10"
     guidetolerance="10"
     inkscape:pageopacity="0"
     inkscape:pageshadow="2"
     inkscape:window-width="1201"
     inkscape:window-height="704"
     id="namedview4"
     showgrid="false"
     inkscape:zoom="0.37359827"
     inkscape:cx="790.83341"
     inkscape:cy="367.37235"
     inkscape:window-x="49"
     inkscape:window-y="30"
     inkscape:window-maximized="0"
     inkscape:current-layer="g10" /><g
     id="g10"
     inkscape:groupmode="layer"
     inkscape:label="madplanets"
     transform="matrix(1.25,0,0,-1.25,0,990)"><path
       inkscape:connector-curvature="0"
       id="path14"
       style="fill:#231f20;fill-opacity:1;fill-rule:nonzero;stroke:none"
       d="M 423,144 C 423,144 219.17627,144 219.17627,144 219.17627,144 219.17627,389 219.17627,389 219.17627,389 192,425 192,425 192,425 194.09033,482 194.09033,482 194.09033,482 250.53418,487 250.53418,487 250.53418,487 286.07227,609 286.07227,609 286.07227,609 259.94141,624 259.94141,624 259.94141,624 259.94141,692 259.94141,692 259.94141,692 312.20313,692 312.20313,692 312.20313,692 423,591 423,591 423,591 423,144 423,144 z" /><path
       inkscape:connector-curvature="0"
       id="path16"
       style="fill:#ffffff;fill-opacity:1;fill-rule:nonzero;stroke:none"
       d="M 409.06348,504 C 409.06348,504 211.16309,444.66602 211.16309,444.66602 211.16309,444.66602 411.1543,332.33301 411.1543,332.33301 411.1543,332.33301 282.58887,435 282.58887,435 282.58887,435 409.06348,504 409.06348,504 z" /><path
       inkscape:connector-curvature="0"
       id="path18"
       style="fill:#ffffff;fill-opacity:1;fill-rule:nonzero;stroke:none"
       d="M 408.71582,540.33301 C 408.71582,540.33301 267.60742,477.6665 267.60742,477.6665 267.60742,477.6665 321.2627,661.6665 321.2627,661.6665 321.2627,661.6665 306.62891,523.33301 306.62891,523.33301 306.62891,523.33301 408.71582,540.33301 408.71582,540.33301 z" /><path
       inkscape:connector-curvature="0"
       id="path28"
       style="fill:#ffffff;fill-opacity:1;fill-rule:nonzero;stroke:none"
       d="M 252.31677,396 C 252.31677,396 311.964,184.34705 311.964,184.34705 311.964,184.34705 295.30902,336.50651 295.30902,336.50651 295.30902,336.50651 411.50195,288.19024 411.50195,288.19024 411.50195,288.19024 252.31677,396 252.31677,396 z" /><text
       xml:space="preserve"
       style="font-size:99.19999695px;font-style:normal;font-variant:normal;font-weight:bold;font-stretch:normal;line-height:125%;letter-spacing:0px;word-spacing:0px;fill:#ffffff;fill-opacity:1;stroke:none;font-family:AMCAP Eternal;-inkscape-font-specification:AMCAP Eternal Bold"
       x="343.11725"
       y="-544.4361"
       id="text3138"
       sodipodi:linespacing="125%"
       transform="scale(1,-1)"><tspan
         sodipodi:role="line"
         id="tspan3140"
         x="343.11725"
         y="-544.4361" /></text>
<text
       xml:space="preserve"
       style="font-size:52.79999924px;font-style:normal;font-variant:normal;font-weight:normal;font-stretch:normal;line-height:125%;letter-spacing:0px;word-spacing:0px;fill:#ffffff;fill-opacity:1;stroke:none;font-family:AMCAP Eternal;-inkscape-font-specification:AMCAP Eternal"
       x="327.36188"
       y="-409.94119"
       id="text3142"
       sodipodi:linespacing="125%"
       transform="scale(1,-1)"><tspan
         sodipodi:role="line"
         x="327.36188"
         y="-409.94119"
         id="tspan3146">+/-</tspan></text>
<text
       xml:space="preserve"
       style="font-size:52.79999924px;font-style:normal;font-variant:normal;font-weight:normal;font-stretch:normal;line-height:125%;letter-spacing:0px;word-spacing:0px;fill:#ffffff;fill-opacity:1;stroke:none;font-family:AMCAP Eternal;-inkscape-font-specification:AMCAP Eternal"
       x="388.64258"
       y="-409.93643"
       id="text3142-7"
       sodipodi:linespacing="125%"
       transform="scale(1,-1)"><tspan
         sodipodi:role="line"
         x="388.64258"
         y="-409.93643"
         id="tspan3146-7">-</tspan></text>
<text
       xml:space="preserve"
       style="font-size:12px;font-style:normal;font-variant:normal;font-weight:normal;font-stretch:normal;line-height:125%;letter-spacing:0px;word-spacing:0px;fill:#000000;fill-opacity:1;stroke:none;font-family:AMCAP Eternal;-inkscape-font-specification:AMCAP Eternal"
       x="157.10225"
       y="-111.78323"
       id="text3190"
       sodipodi:linespacing="125%"
       transform="scale(1,-1)"><tspan
         sodipodi:role="line"
         id="tspan3192"
         x="157.10225"
         y="-111.78323">Mad Planets cabinet shape is for position only.</tspan></text>
</g></svg>